%FSLAX43Y43*%
%MOMM*%
G71*
G01*
G75*
G04 Layer_Physical_Order=1*
G04 Layer_Color=1462238*
%ADD10R,0.800X0.900*%
%ADD11R,2.880X1.120*%
%ADD12R,0.900X1.270*%
%ADD13R,1.000X1.800*%
%ADD14R,1.400X1.200*%
%ADD15R,0.300X1.600*%
%ADD16R,1.600X0.300*%
%ADD17R,0.900X0.800*%
%ADD18R,0.508X0.559*%
%ADD19R,1.270X0.900*%
G04:AMPARAMS|DCode=20|XSize=1.9mm|YSize=3.3mm|CornerRadius=0mm|HoleSize=0mm|Usage=FLASHONLY|Rotation=180.000|XOffset=0mm|YOffset=0mm|HoleType=Round|Shape=Octagon|*
%AMOCTAGOND20*
4,1,8,0.475,-1.650,-0.475,-1.650,-0.950,-1.175,-0.950,1.175,-0.475,1.650,0.475,1.650,0.950,1.175,0.950,-1.175,0.475,-1.650,0.0*
%
%ADD20OCTAGOND20*%

%ADD21R,0.700X1.800*%
%ADD22R,0.700X1.350*%
%ADD23R,0.800X0.800*%
%ADD24R,1.600X2.200*%
%ADD25R,1.350X0.400*%
%ADD26R,1.900X1.900*%
%ADD27R,1.900X1.800*%
%ADD28R,0.600X1.400*%
%ADD29R,1.800X2.500*%
%ADD30C,0.200*%
%ADD31C,0.400*%
%ADD32C,0.300*%
%ADD33R,0.550X11.375*%
%ADD34R,0.550X2.225*%
%ADD35R,0.550X2.300*%
%ADD36R,1.975X0.550*%
%ADD37R,1.400X0.400*%
%ADD38R,0.400X1.400*%
%ADD39R,1.400X0.400*%
%ADD40R,2.150X0.500*%
%ADD41R,0.500X2.150*%
%ADD42C,0.600*%
%ADD43C,3.200*%
%ADD44C,1.000*%
%ADD45C,1.500*%
%ADD46C,1.700*%
%ADD47C,2.000*%
%ADD48C,1.800*%
G36*
X94500Y88000D02*
Y87300D01*
X94000Y86800D01*
X92800D01*
X92600Y87000D01*
Y89000D01*
X92800Y89200D01*
X93300D01*
X94500Y88000D01*
D02*
G37*
G36*
X84850Y86100D02*
X88075D01*
X88250Y85925D01*
Y85475D01*
X88575Y85150D01*
X88750D01*
X88925Y84975D01*
Y84875D01*
X89250Y84550D01*
X89925D01*
X90225Y84250D01*
Y83150D01*
X89950Y82875D01*
Y82050D01*
X90025Y81975D01*
Y79875D01*
X89775Y79625D01*
X88850D01*
X88200Y80275D01*
X86650D01*
X85925Y81000D01*
Y81825D01*
X86050Y81950D01*
X86250D01*
X86500Y81700D01*
X87050D01*
X87300Y81950D01*
Y83475D01*
X87075Y83700D01*
Y85600D01*
X86925Y85750D01*
X82800D01*
X82700Y85650D01*
Y82950D01*
Y81350D01*
X82375Y81025D01*
X79125D01*
X78825Y80725D01*
X78700D01*
X78550Y80875D01*
Y81450D01*
X79625Y82525D01*
X79800D01*
X79925Y82400D01*
Y82125D01*
X80450Y81600D01*
X81750D01*
X82000Y81850D01*
Y82775D01*
X82400Y83175D01*
Y85650D01*
X82300Y85750D01*
X82150D01*
X82050Y85850D01*
Y86000D01*
X82825Y86775D01*
X83000D01*
X83125Y86650D01*
X83650D01*
X83850Y86850D01*
X84100D01*
X84850Y86100D01*
D02*
G37*
G36*
X96175Y87700D02*
Y86550D01*
X96500Y86225D01*
Y85150D01*
X96350Y85000D01*
X94150D01*
X94000Y85150D01*
Y86300D01*
X95475Y87775D01*
X96100D01*
X96175Y87700D01*
D02*
G37*
G36*
X58700Y94950D02*
Y90650D01*
X58325Y90275D01*
Y88200D01*
X59475Y87050D01*
X60350D01*
X60575Y86825D01*
Y86525D01*
X60400Y86350D01*
Y84550D01*
X60750Y84200D01*
X62300D01*
X62600Y84500D01*
X64750D01*
X65000Y84750D01*
Y86200D01*
X65250Y86450D01*
Y88250D01*
X64625Y88875D01*
Y91000D01*
X64800Y91175D01*
X65750D01*
X65975Y91400D01*
Y91575D01*
X65825Y91725D01*
X64925D01*
Y92675D01*
X65775D01*
X65950Y92850D01*
Y94175D01*
X66100Y94325D01*
X66625D01*
X66775Y94175D01*
Y94000D01*
X66900Y93875D01*
X69725D01*
X69875Y94025D01*
Y94250D01*
X70575Y94950D01*
X73225D01*
X74025Y94150D01*
Y93950D01*
X73975Y93900D01*
X73400D01*
X73200Y93700D01*
Y92325D01*
X73800Y91725D01*
Y91050D01*
X73700Y90950D01*
X69975D01*
X68725Y89700D01*
X68200D01*
X68075Y89825D01*
Y90025D01*
X67725Y90375D01*
X67275D01*
X66925Y90025D01*
Y89750D01*
X66775Y89600D01*
Y86325D01*
Y84225D01*
X66900Y84100D01*
X67850D01*
X68050Y83900D01*
Y83475D01*
X66000Y81425D01*
X62850D01*
X61050Y79625D01*
X59025D01*
X58825Y79825D01*
Y80875D01*
X58550Y81150D01*
Y84000D01*
X59100Y84550D01*
Y86300D01*
X58850Y86550D01*
X57525D01*
X56350Y85375D01*
X54825D01*
X54250Y84800D01*
Y82650D01*
X53950Y82350D01*
X52050D01*
X51600Y82800D01*
Y90075D01*
X51925Y90400D01*
X53700D01*
X53850Y90550D01*
Y90800D01*
X54075Y91025D01*
X56100D01*
X56275Y91200D01*
Y94025D01*
X56100Y94200D01*
X54500D01*
Y94600D01*
X56125D01*
X56275Y94750D01*
Y95025D01*
X56550Y95300D01*
X58350D01*
X58700Y94950D01*
D02*
G37*
G36*
X105350Y97875D02*
X105525Y97700D01*
X106275D01*
X106500Y97475D01*
Y94025D01*
X106200Y93725D01*
Y92200D01*
X105725D01*
Y93725D01*
X105525Y93925D01*
X105150D01*
X104825Y94250D01*
Y97725D01*
X104875Y97775D01*
Y99400D01*
X104850Y99425D01*
X104875Y99450D01*
X105350D01*
Y97875D01*
D02*
G37*
G36*
X71025Y97825D02*
X74000D01*
X75600Y96225D01*
X77600D01*
X78575Y95250D01*
Y94825D01*
X78750Y94650D01*
X80025D01*
X80200Y94475D01*
Y93600D01*
X80600Y93200D01*
Y92775D01*
X80475Y92650D01*
X79100D01*
X78650Y92200D01*
X78500D01*
X78375Y92325D01*
Y93600D01*
X78175Y93800D01*
X76175D01*
X73800Y96175D01*
X70625D01*
X69875Y96925D01*
Y97350D01*
X69725Y97500D01*
X66750D01*
X66650Y97600D01*
Y97775D01*
X67275Y98400D01*
X69675D01*
X69825Y98550D01*
X70300D01*
X71025Y97825D01*
D02*
G37*
G36*
X78000Y91800D02*
X75825D01*
X74975Y90950D01*
X74250D01*
X74200Y91000D01*
Y91775D01*
X74525Y92100D01*
X78000D01*
Y91800D01*
D02*
G37*
G36*
X64950Y88050D02*
Y86575D01*
X64725Y86350D01*
Y85525D01*
X64375Y85175D01*
X62800D01*
X62100Y84475D01*
X60900D01*
X60700Y84675D01*
Y86100D01*
X61550Y86950D01*
X62025D01*
X62700Y87625D01*
Y88050D01*
X63075Y88425D01*
X64575D01*
X64950Y88050D01*
D02*
G37*
G36*
X100600Y84750D02*
Y83800D01*
X96450Y79650D01*
X95025D01*
X94850Y79825D01*
Y80150D01*
X99700Y85000D01*
X100350D01*
X100600Y84750D01*
D02*
G37*
G36*
X91225Y89975D02*
Y89500D01*
X92075Y88650D01*
Y81675D01*
X91325Y80925D01*
Y79700D01*
X91625Y79400D01*
Y78375D01*
X90350D01*
Y81425D01*
X91125Y82200D01*
Y88625D01*
X89950Y89800D01*
X87600D01*
Y90100D01*
X91100D01*
X91225Y89975D01*
D02*
G37*
G36*
X58775Y86075D02*
Y84700D01*
X58200Y84125D01*
Y81075D01*
X58525Y80750D01*
Y78150D01*
X57350D01*
Y80325D01*
X54650Y83025D01*
Y84500D01*
X54850Y84700D01*
X56225D01*
X57750Y86225D01*
X58625D01*
X58775Y86075D01*
D02*
G37*
G36*
X101350Y82000D02*
Y79825D01*
X101175Y79650D01*
X99175D01*
X99025Y79800D01*
Y80075D01*
X101075Y82125D01*
X101225D01*
X101350Y82000D01*
D02*
G37*
G36*
X82200Y83375D02*
X81750Y82925D01*
Y81975D01*
X81650Y81875D01*
X80550D01*
X80175Y82250D01*
Y82875D01*
X80725Y83425D01*
X81625D01*
X81900Y83700D01*
Y85400D01*
X82200D01*
Y83375D01*
D02*
G37*
G36*
X77275Y85825D02*
Y83925D01*
X75300Y81950D01*
X74050D01*
X73600Y81500D01*
X73425D01*
X73150Y81775D01*
Y82625D01*
X76450Y85925D01*
X77175D01*
X77275Y85825D01*
D02*
G37*
G36*
X71975Y88025D02*
Y86400D01*
X72100Y86275D01*
X73425D01*
X73650Y86050D01*
Y85600D01*
X71475Y83425D01*
Y82550D01*
X70525Y81600D01*
Y81275D01*
X70325Y81075D01*
X69375D01*
X68400Y80100D01*
X67750D01*
X67625Y80225D01*
Y80550D01*
X71450Y84375D01*
Y85900D01*
X71675Y86125D01*
Y86575D01*
X71150Y87100D01*
Y88200D01*
X71275Y88325D01*
X71675D01*
X71975Y88025D01*
D02*
G37*
G36*
X75500Y92600D02*
X78000D01*
Y92300D01*
X73850D01*
X73650Y92500D01*
Y93425D01*
X73850Y93625D01*
X74475D01*
X75500Y92600D01*
D02*
G37*
G36*
X123000Y109600D02*
Y100600D01*
Y90600D01*
Y80600D01*
Y77500D01*
X122500Y77000D01*
X111000D01*
X110775Y77225D01*
Y80525D01*
X109050Y82250D01*
X106525D01*
X104750Y80475D01*
Y79875D01*
X104375Y79500D01*
Y78975D01*
X102975D01*
Y79500D01*
X102775Y79700D01*
X102450D01*
X102225Y79925D01*
Y82050D01*
X102500Y82325D01*
Y82475D01*
X102675Y82650D01*
Y90100D01*
Y91375D01*
X100375Y93675D01*
Y94550D01*
X100500Y94675D01*
X100725D01*
X104100Y91300D01*
X108325D01*
X108825Y91800D01*
X109025D01*
X109175Y91950D01*
Y92975D01*
Y93725D01*
X108975Y93925D01*
X107625D01*
X107475Y93775D01*
Y93450D01*
X107000D01*
Y93800D01*
X106800Y94000D01*
Y98425D01*
X107025Y98650D01*
X108175D01*
X108300Y98775D01*
Y100425D01*
X109100Y101225D01*
X112800D01*
X114275Y99750D01*
X120500D01*
X121350Y100600D01*
Y101800D01*
X120500Y102650D01*
X114275D01*
X113875Y102250D01*
X113550D01*
X113350Y102450D01*
Y102775D01*
X115325Y104750D01*
X120500D01*
X121350Y105600D01*
Y106800D01*
X120500Y107650D01*
X114300D01*
X113450Y106800D01*
Y105550D01*
X113750Y105250D01*
Y104850D01*
X112250Y103350D01*
X108525D01*
X108300Y103575D01*
Y104875D01*
X108575Y105150D01*
X109075D01*
X110850Y106925D01*
Y109975D01*
X111275Y110400D01*
X122200D01*
X123000Y109600D01*
D02*
G37*
G36*
X63500Y108400D02*
Y107125D01*
X63725Y106900D01*
X63975D01*
X64225Y106650D01*
Y104800D01*
X64775Y104250D01*
X65325D01*
X66725Y102850D01*
Y99275D01*
X66175Y98725D01*
X64925D01*
Y99675D01*
X65550D01*
X65675Y99800D01*
Y100450D01*
X64825Y101300D01*
Y102700D01*
X64500Y103025D01*
X62900D01*
X60775Y105150D01*
Y106425D01*
X61225Y106875D01*
X62275D01*
X62525Y107125D01*
Y108400D01*
X62825Y108700D01*
X63200D01*
X63500Y108400D01*
D02*
G37*
G36*
X59225Y99250D02*
Y97875D01*
X58150Y96800D01*
X54500D01*
Y97200D01*
X56125D01*
X56575Y97650D01*
Y99400D01*
X57025Y99850D01*
X58625D01*
X59225Y99250D01*
D02*
G37*
G36*
X81450Y100050D02*
X81250Y99850D01*
X80950D01*
X80750Y100050D01*
Y100750D01*
X81450D01*
Y100050D01*
D02*
G37*
G36*
X101025Y109300D02*
Y108425D01*
X103175Y106275D01*
Y105900D01*
X103025Y105750D01*
X102675D01*
X100125Y108300D01*
Y109325D01*
X99975Y109475D01*
X94000D01*
Y109850D01*
X100475D01*
X101025Y109300D01*
D02*
G37*
G36*
X66050Y108550D02*
Y107175D01*
X66300Y106925D01*
X67125D01*
X68175Y105875D01*
Y104200D01*
X68000Y104025D01*
X66150D01*
X65475Y104700D01*
X65000D01*
X64675Y105025D01*
Y106750D01*
X65075Y107150D01*
Y108550D01*
X65350Y108825D01*
X65775D01*
X66050Y108550D01*
D02*
G37*
G36*
X104750Y110100D02*
Y106925D01*
X106525Y105150D01*
X106575D01*
X106675Y105050D01*
Y104475D01*
X105800Y103600D01*
Y102650D01*
X105475Y102325D01*
X103950D01*
X102025Y100400D01*
Y100000D01*
X101850Y99825D01*
X100850D01*
X100700Y99675D01*
Y98225D01*
X100575Y98100D01*
X100350D01*
X98800Y99650D01*
X90075D01*
X88375Y97950D01*
X86800D01*
X86600Y98150D01*
Y100100D01*
X87125Y100625D01*
X88925D01*
X89050Y100750D01*
Y102300D01*
X89250Y102500D01*
Y104875D01*
X89025Y105100D01*
X84950D01*
X84775Y104925D01*
Y102675D01*
X84975Y102475D01*
Y101100D01*
X84725Y100850D01*
X84350D01*
X83200Y99700D01*
Y94725D01*
X83275Y94650D01*
X86975D01*
X87100Y94775D01*
Y95000D01*
Y96175D01*
X87250Y96325D01*
X89225D01*
X90625Y97725D01*
X90825D01*
X90975Y97575D01*
X91450D01*
X91775Y97900D01*
Y98225D01*
X92025Y98475D01*
X98175D01*
X98500Y98150D01*
Y97950D01*
X98375Y97825D01*
X92550D01*
X91325Y96600D01*
X90050D01*
X88175Y94725D01*
X87950Y94500D01*
X87475D01*
X87200Y94225D01*
Y90800D01*
X87400Y90600D01*
X94000D01*
X95625Y88975D01*
X97875D01*
X98125Y88725D01*
Y87500D01*
X97650Y87025D01*
Y86575D01*
X97975Y86250D01*
X99075D01*
X99225Y86100D01*
Y85825D01*
X93025Y79625D01*
X91900D01*
X91650Y79875D01*
Y80750D01*
X92375Y81475D01*
Y81950D01*
X92900Y82475D01*
Y83725D01*
X92375Y84250D01*
Y84675D01*
X92525Y84825D01*
X93850D01*
X93975Y84700D01*
X96525D01*
X96725Y84900D01*
X96900D01*
X97125Y85125D01*
Y86100D01*
X96525Y86700D01*
Y87850D01*
X96325Y88050D01*
X95350D01*
X95250Y87950D01*
X94975D01*
X93475Y89450D01*
X92675D01*
X92350Y89125D01*
X91950D01*
X91600Y89475D01*
Y90125D01*
X91425Y90300D01*
X87425D01*
X87150Y90025D01*
X86725D01*
X86275Y90475D01*
Y91325D01*
X86350Y91400D01*
Y91975D01*
X86050Y92275D01*
X85425Y92275D01*
X84675D01*
X84325Y91925D01*
X84325Y91475D01*
X84725Y91075D01*
Y89650D01*
X84300Y89225D01*
X81850D01*
X81250Y88625D01*
X80775D01*
X79250Y87100D01*
Y86750D01*
X79100Y86600D01*
X78575D01*
X78425Y86750D01*
Y87525D01*
X78575Y87675D01*
X79050D01*
X82350Y90975D01*
X83000D01*
X83500Y91475D01*
X85500Y93475D01*
Y93950D01*
X85175Y94275D01*
X84675D01*
X84500Y94100D01*
X83850D01*
X83650Y93900D01*
X82975D01*
X82700Y93625D01*
X81925D01*
X81425Y94125D01*
Y94400D01*
X81675Y94650D01*
X82800D01*
X82900Y94750D01*
Y99450D01*
X82600Y99750D01*
Y102225D01*
X82175Y102650D01*
Y103750D01*
X81825Y104100D01*
Y105600D01*
X81675Y105750D01*
X80275D01*
X80100Y105575D01*
Y104325D01*
X79850Y104075D01*
X78925D01*
Y103400D01*
X80700Y101625D01*
Y101375D01*
X80650Y101325D01*
X80550D01*
X78900Y102975D01*
X77650D01*
Y102325D01*
X77400Y102075D01*
X75825D01*
X75600Y101850D01*
Y100600D01*
X75775Y100425D01*
X77675D01*
X77750Y100350D01*
X78900D01*
X80125Y99125D01*
X80550D01*
X80625Y99050D01*
Y98125D01*
X80100Y97600D01*
X79975D01*
X79675Y97900D01*
X76300D01*
X75125Y99075D01*
Y104025D01*
X77075Y105975D01*
Y106850D01*
X77275Y107050D01*
X83275D01*
X83925Y107700D01*
Y108675D01*
X83250Y109350D01*
X80200D01*
X79800Y109750D01*
X78025D01*
X76300Y108025D01*
X76125D01*
X76025Y108125D01*
Y108825D01*
X75775Y109075D01*
X71150D01*
X70900Y108825D01*
Y106425D01*
X71675Y105650D01*
X71925D01*
X72650Y104925D01*
X72650Y100450D01*
X73000Y100100D01*
X73600D01*
X73900Y99800D01*
Y98800D01*
X73650Y98550D01*
X71375D01*
X70350Y99575D01*
X70000D01*
X69850Y99725D01*
Y101800D01*
X69650Y102000D01*
X67250D01*
X67075Y102175D01*
Y103175D01*
X67475Y103575D01*
X68350D01*
X68950Y104175D01*
Y105825D01*
X68500Y106275D01*
Y106750D01*
X69400Y107650D01*
Y108725D01*
X68625Y109500D01*
X62475D01*
X61725Y108750D01*
Y107400D01*
X61525Y107200D01*
X60600D01*
X60025Y106625D01*
Y104450D01*
X59875Y104300D01*
X59500D01*
X58350Y103150D01*
Y100725D01*
X57975Y100350D01*
X54100D01*
X53850Y100600D01*
Y100800D01*
X53675Y100975D01*
X51850D01*
X51600Y101225D01*
Y104850D01*
X51900Y105150D01*
X55075D01*
X56850Y106925D01*
Y110125D01*
X57125Y110400D01*
X70650D01*
X71150Y109900D01*
X75775D01*
X76025Y110150D01*
Y110300D01*
X76125Y110400D01*
X93075D01*
X93400Y110075D01*
Y107600D01*
X93600Y107400D01*
X93600Y103900D01*
X93900Y103600D01*
Y103150D01*
X94375Y102675D01*
Y101825D01*
X94700Y101500D01*
X96150D01*
X96675Y102025D01*
X97275D01*
X97450Y101850D01*
Y100175D01*
X97550Y100075D01*
X98875D01*
X98975Y100175D01*
Y101725D01*
Y102050D01*
D01*
Y103150D01*
X99500Y103675D01*
Y105775D01*
X99850Y106125D01*
X100600D01*
X100750Y105975D01*
Y105675D01*
X100625Y105550D01*
Y105300D01*
X100500Y105175D01*
X100250D01*
X99925Y104850D01*
Y102475D01*
X99975Y102425D01*
X100225Y102175D01*
X100725D01*
X101025Y102475D01*
X101250Y102700D01*
X104600D01*
X105475Y103575D01*
Y103750D01*
X105725Y104000D01*
Y105600D01*
X105600Y105725D01*
X103650D01*
X103475Y105900D01*
Y106375D01*
X101375Y108475D01*
Y109450D01*
X100925Y109900D01*
Y110250D01*
X101075Y110400D01*
X104450D01*
X104750Y110100D01*
D02*
G37*
G36*
X81700Y98975D02*
Y95000D01*
X81400D01*
Y96800D01*
X81225Y96975D01*
X80675Y96975D01*
X80500Y97150D01*
Y97650D01*
X80900Y98050D01*
Y99050D01*
X80975Y99125D01*
X81550D01*
X81700Y98975D01*
D02*
G37*
G36*
X86125Y99400D02*
Y98425D01*
X86025Y98325D01*
X85000D01*
X84700Y98025D01*
Y95000D01*
X84400D01*
Y99000D01*
X84950Y99550D01*
X85975D01*
X86125Y99400D01*
D02*
G37*
G36*
X85800Y97950D02*
Y97675D01*
X85175Y97050D01*
Y95025D01*
X84925D01*
Y97875D01*
X85125Y98075D01*
X85675D01*
X85800Y97950D01*
D02*
G37*
%LPC*%
G36*
X115500Y97650D02*
X114300D01*
X113450Y96800D01*
Y95600D01*
X114300Y94750D01*
X115500D01*
X116350Y95600D01*
Y96800D01*
X115500Y97650D01*
D02*
G37*
G36*
X78400Y104075D02*
X77800D01*
X77650Y103925D01*
Y103300D01*
X78450D01*
Y104025D01*
X78400Y104075D01*
D02*
G37*
G36*
X86825Y109350D02*
X86150Y108675D01*
Y107700D01*
X86800Y107050D01*
X89775D01*
X90425Y107700D01*
Y108700D01*
X89775Y109350D01*
X86825Y109350D01*
D02*
G37*
G36*
X78125Y94525D02*
X76300D01*
X76175Y94400D01*
Y94225D01*
X76300Y94100D01*
X78200D01*
X78275Y94175D01*
Y94375D01*
X78125Y94525D01*
D02*
G37*
G36*
X120500Y97650D02*
X119300D01*
X118450Y96800D01*
Y95600D01*
X119300Y94750D01*
X120500D01*
X121350Y95600D01*
Y96800D01*
X120500Y97650D01*
D02*
G37*
G36*
Y92650D02*
X114300D01*
X113450Y91800D01*
Y90525D01*
X113225Y90300D01*
X107125D01*
X105400Y88575D01*
X105200D01*
X105050Y88725D01*
Y89550D01*
X104825Y89775D01*
Y89975D01*
X104475Y90325D01*
X104025D01*
X103700Y90000D01*
Y89550D01*
X104025Y89225D01*
X104200D01*
X104350Y89075D01*
Y88175D01*
X104050Y87875D01*
Y86050D01*
X104225Y85875D01*
Y85750D01*
X104075Y85600D01*
X103175D01*
X103025Y85450D01*
Y82700D01*
X103175Y82550D01*
X108175D01*
X108325Y82700D01*
Y85725D01*
X108500Y85900D01*
X109025D01*
X109175Y86050D01*
Y86300D01*
X109300Y86425D01*
X109525D01*
X109850Y86750D01*
Y87200D01*
X109500Y87550D01*
Y88075D01*
X109700Y88275D01*
X113125D01*
X113850Y87550D01*
Y87200D01*
X113450Y86800D01*
Y85600D01*
X114300Y84750D01*
X120500D01*
X121350Y85600D01*
Y86800D01*
X120500Y87650D01*
X115425D01*
X114025Y89050D01*
Y89500D01*
X114275Y89750D01*
X120500D01*
X121350Y90600D01*
Y91800D01*
X120500Y92650D01*
D02*
G37*
G36*
X115500Y82650D02*
X114300D01*
X113450Y81800D01*
Y80600D01*
X114300Y79750D01*
X115500D01*
X116350Y80600D01*
Y81800D01*
X115500Y82650D01*
D02*
G37*
G36*
X120525Y82625D02*
X119275D01*
X118450Y81800D01*
Y80600D01*
X119300Y79750D01*
X120500D01*
X121350Y80600D01*
Y81800D01*
X120525Y82625D01*
D02*
G37*
%LPD*%
D10*
X74200Y87000D02*
D03*
X72600D02*
D03*
X93200Y87600D02*
D03*
X91600D02*
D03*
X88225Y101425D02*
D03*
X89825D02*
D03*
X81075Y105000D02*
D03*
X79475D02*
D03*
X69100Y99200D02*
D03*
X67500D02*
D03*
Y101200D02*
D03*
X69100D02*
D03*
Y96700D02*
D03*
X67500D02*
D03*
X69100Y94675D02*
D03*
X67500D02*
D03*
X74200Y92900D02*
D03*
X72600D02*
D03*
X69100Y88900D02*
D03*
X67500D02*
D03*
X69100Y86900D02*
D03*
X67500D02*
D03*
Y84900D02*
D03*
X69100D02*
D03*
X87200Y98900D02*
D03*
X85600D02*
D03*
X92800Y85600D02*
D03*
X94400D02*
D03*
X97700D02*
D03*
X96100D02*
D03*
X98400Y91700D02*
D03*
X96800D02*
D03*
X104000Y96275D02*
D03*
X102400D02*
D03*
X91575Y92275D02*
D03*
X93175D02*
D03*
X93200Y95200D02*
D03*
X91600D02*
D03*
X63600Y105800D02*
D03*
X65200D02*
D03*
X72600Y88700D02*
D03*
X74200D02*
D03*
X85750Y101400D02*
D03*
X84150D02*
D03*
D11*
X63980Y99200D02*
D03*
Y96700D02*
D03*
Y94700D02*
D03*
Y92200D02*
D03*
D12*
X91625Y83100D02*
D03*
X93725D02*
D03*
X69550Y105100D02*
D03*
X67450D02*
D03*
X59250Y105700D02*
D03*
X61350D02*
D03*
D13*
X85750Y103800D02*
D03*
X88250D02*
D03*
D14*
X81100Y103150D02*
D03*
X78700D02*
D03*
Y101250D02*
D03*
X81100D02*
D03*
D15*
X86550Y95800D02*
D03*
X86050D02*
D03*
X85550D02*
D03*
X85050D02*
D03*
X84550D02*
D03*
X84050D02*
D03*
X83550D02*
D03*
X83050D02*
D03*
X82550D02*
D03*
X82050D02*
D03*
X81550D02*
D03*
X81050D02*
D03*
X80550D02*
D03*
X80050D02*
D03*
X79550D02*
D03*
X79050D02*
D03*
X86550Y84600D02*
D03*
X86050D02*
D03*
X85550D02*
D03*
X85050D02*
D03*
X84550D02*
D03*
X84050D02*
D03*
X83550D02*
D03*
X83050D02*
D03*
X82550D02*
D03*
X82050D02*
D03*
X81550D02*
D03*
X81050D02*
D03*
X80550D02*
D03*
X80050D02*
D03*
X79550D02*
D03*
X79050D02*
D03*
D16*
X77200Y93950D02*
D03*
Y93450D02*
D03*
Y92950D02*
D03*
Y92450D02*
D03*
Y91950D02*
D03*
Y91450D02*
D03*
Y90950D02*
D03*
Y90450D02*
D03*
Y89950D02*
D03*
Y89450D02*
D03*
Y88950D02*
D03*
Y88450D02*
D03*
Y87950D02*
D03*
Y87450D02*
D03*
Y86950D02*
D03*
Y86450D02*
D03*
X88400Y93950D02*
D03*
Y93450D02*
D03*
Y92950D02*
D03*
Y92450D02*
D03*
Y91950D02*
D03*
Y91450D02*
D03*
Y90950D02*
D03*
Y90450D02*
D03*
Y89950D02*
D03*
Y89450D02*
D03*
Y88950D02*
D03*
Y88450D02*
D03*
Y87950D02*
D03*
Y87450D02*
D03*
Y86950D02*
D03*
Y86450D02*
D03*
D17*
X76375Y101125D02*
D03*
Y102725D02*
D03*
X103800Y83300D02*
D03*
Y84900D02*
D03*
X105700D02*
D03*
Y83300D02*
D03*
X107500D02*
D03*
Y84900D02*
D03*
X99600Y94300D02*
D03*
Y95900D02*
D03*
X97700Y94300D02*
D03*
Y95900D02*
D03*
X95900Y94300D02*
D03*
Y95900D02*
D03*
X94400Y104600D02*
D03*
Y106200D02*
D03*
X96300Y104600D02*
D03*
Y106200D02*
D03*
X98200Y104600D02*
D03*
Y106200D02*
D03*
Y102400D02*
D03*
Y100800D02*
D03*
X107500Y99400D02*
D03*
Y101000D02*
D03*
Y104400D02*
D03*
Y102800D02*
D03*
D18*
X90892Y89700D02*
D03*
X91908D02*
D03*
X96908Y87200D02*
D03*
X95892D02*
D03*
X81283Y98625D02*
D03*
X80267D02*
D03*
X74508Y91300D02*
D03*
X73492D02*
D03*
X81342Y82300D02*
D03*
X82358D02*
D03*
X106192Y95100D02*
D03*
X107208D02*
D03*
X106192Y97100D02*
D03*
X107208D02*
D03*
D19*
X55500Y86050D02*
D03*
Y83950D02*
D03*
X63700Y83750D02*
D03*
Y85850D02*
D03*
D20*
X59700Y82613D02*
D03*
D21*
X59700Y85162D02*
D03*
D22*
X61200Y85387D02*
D03*
X58200D02*
D03*
D23*
X96710Y108150D02*
D03*
Y109650D02*
D03*
X99250D02*
D03*
Y108150D02*
D03*
X94170D02*
D03*
Y109650D02*
D03*
D24*
X55050Y92500D02*
D03*
Y98900D02*
D03*
D25*
X55175Y97000D02*
D03*
Y96350D02*
D03*
Y95700D02*
D03*
Y95050D02*
D03*
Y94400D02*
D03*
D26*
X52500Y94500D02*
D03*
Y96900D02*
D03*
D27*
Y91700D02*
D03*
Y99700D02*
D03*
D28*
X108505Y92850D02*
D03*
X107235D02*
D03*
X105965D02*
D03*
X104695D02*
D03*
X108505Y86950D02*
D03*
X107235D02*
D03*
X105965D02*
D03*
X104695D02*
D03*
X105105Y104700D02*
D03*
X103835D02*
D03*
X102565D02*
D03*
X101295D02*
D03*
X105105Y98800D02*
D03*
X103835D02*
D03*
X102565D02*
D03*
X101295D02*
D03*
D29*
X98580Y78000D02*
D03*
X96040D02*
D03*
X57940D02*
D03*
X60480D02*
D03*
X63020D02*
D03*
X65560D02*
D03*
X68100D02*
D03*
X70640D02*
D03*
X75720D02*
D03*
X93500D02*
D03*
X90960D02*
D03*
X88420D02*
D03*
X85880D02*
D03*
X83340D02*
D03*
X80800D02*
D03*
X78260D02*
D03*
X101120D02*
D03*
X103660D02*
D03*
X73180D02*
D03*
D30*
X85075Y88750D02*
X85775Y88050D01*
X85075Y88750D02*
Y91500D01*
X74740Y105765D02*
Y106950D01*
X73675Y104700D02*
X74740Y105765D01*
X73675Y101400D02*
Y104700D01*
X76625Y106150D02*
Y107050D01*
X74750Y104275D02*
X76625Y106150D01*
X74750Y98875D02*
Y104275D01*
X76150Y106400D02*
Y107300D01*
X74325Y104575D02*
X76150Y106400D01*
X74325Y98650D02*
Y104575D01*
X102565Y104700D02*
Y105235D01*
X63375Y78355D02*
Y80350D01*
X66225Y79925D02*
X66425D01*
X65825Y80550D02*
X66375D01*
X66900Y79700D02*
X68600D01*
X65560Y78360D02*
X66900Y79700D01*
X68600D02*
X69600Y80700D01*
X73325D01*
X84875Y91700D02*
X85075Y91500D01*
X108530Y86975D02*
X109300D01*
X70640Y78000D02*
Y78515D01*
X69100Y88225D02*
Y88900D01*
X68100Y78000D02*
Y78475D01*
X75325Y90075D02*
X76200Y90950D01*
X75100Y90575D02*
X75975Y91450D01*
X78450Y88075D02*
X78875D01*
X78325Y87950D02*
X78450Y88075D01*
X77200Y87950D02*
X78325D01*
X77200Y88450D02*
X78250D01*
X78300Y88500D01*
X78625D01*
X70500Y95800D02*
X73600D01*
X69700Y96600D02*
X70500Y95800D01*
X69100Y96600D02*
X69700D01*
X73600Y95800D02*
X75950Y93450D01*
X73400Y95300D02*
X75750Y92950D01*
X70400Y95300D02*
X73400D01*
X69700Y94600D02*
X70400Y95300D01*
X69100Y94600D02*
X69700D01*
X75950Y93450D02*
X77200D01*
X75750Y92950D02*
X77200D01*
X82525Y80650D02*
X83050Y81175D01*
X82775Y80175D02*
X83550Y80950D01*
X83000Y79725D02*
X84050Y80775D01*
X81225Y79725D02*
X83000D01*
X80800Y79300D02*
X81225Y79725D01*
X84550Y80575D02*
Y84600D01*
X83340Y79365D02*
X84550Y80575D01*
X83340Y78000D02*
Y79365D01*
X84050Y80775D02*
Y84600D01*
X83050Y81175D02*
Y84600D01*
X75975Y91450D02*
X77200D01*
X76200Y90950D02*
X77200D01*
X85550Y95800D02*
Y96900D01*
X86050Y95800D02*
Y96775D01*
X82050Y95800D02*
X82062Y95812D01*
X80800Y78000D02*
Y79300D01*
X75720Y78000D02*
Y79520D01*
X83550Y80950D02*
Y84600D01*
X85050Y80575D02*
Y84600D01*
X85550Y80850D02*
Y84600D01*
X85050Y80575D02*
X85880Y79745D01*
Y78000D02*
Y79745D01*
X85550Y80850D02*
X86500Y79900D01*
X88000D01*
X88420Y79480D01*
Y78000D02*
Y79480D01*
X75720Y79520D02*
X76100Y79900D01*
X78260Y78000D02*
Y78960D01*
X79475Y80175D01*
X82775D01*
X76100Y79900D02*
X78500D01*
X79250Y80650D01*
X82525D01*
X77300Y80500D02*
Y81300D01*
X79550Y83550D01*
Y84600D01*
X78200Y80500D02*
Y81600D01*
X80050Y83450D01*
Y84600D01*
X87350Y86900D02*
X87400Y86950D01*
X88400D01*
Y87950D02*
X89375D01*
X87150Y87375D02*
X87225Y87450D01*
X88400D01*
X82050Y95800D02*
Y99150D01*
X80550Y84600D02*
Y85600D01*
X81050Y84600D02*
Y85750D01*
X80575Y86225D02*
X81050Y85750D01*
X80375Y85775D02*
X80550Y85600D01*
X81550Y84600D02*
Y86025D01*
X85550Y96900D02*
X86225Y97575D01*
X88525D01*
X86050Y96775D02*
X86425Y97150D01*
X88800D01*
X86550Y95800D02*
Y96525D01*
X86725Y96700D01*
X71225Y98175D02*
X74175D01*
X54975Y96350D02*
X61650D01*
X62000Y96700D01*
X63980D01*
X67500D01*
X54975Y95700D02*
X62025D01*
X63025Y94700D01*
X67400D02*
X67500Y94600D01*
X63025Y94700D02*
X67400D01*
X70200Y99200D02*
X71225Y98175D01*
X69100Y99200D02*
X70200D01*
X69100D02*
Y99400D01*
X67500Y101000D02*
X69100Y99400D01*
X66300Y98000D02*
X67500Y99200D01*
X58700Y98000D02*
X66300D01*
X79625Y109375D02*
X80800Y108200D01*
X108505Y91980D02*
Y92850D01*
X78500Y86225D02*
X80575D01*
X81550Y86025D02*
X82725Y87200D01*
X83400D01*
X86050Y82775D02*
Y84600D01*
X86550Y83625D02*
Y84600D01*
Y83625D02*
X86750Y83425D01*
X81275Y88075D02*
X82050Y88850D01*
X65560Y78000D02*
Y78360D01*
X70640Y78515D02*
X71850Y79725D01*
X68100Y78475D02*
X69850Y80225D01*
X89375Y87950D02*
X89625Y87700D01*
Y86075D02*
Y87700D01*
X89350Y85800D02*
X89625Y86075D01*
X88900Y85800D02*
X89350D01*
X88800Y85700D02*
X88900Y85800D01*
X82525Y87850D02*
X83650D01*
X85050Y86450D01*
X88400D01*
X82050Y88850D02*
X84050D01*
X85525Y87375D01*
X87150D01*
X82275Y88350D02*
X83850D01*
X85300Y86900D01*
X87350D01*
X80850Y88075D02*
X81275D01*
X81450Y86775D02*
X82525Y87850D01*
X79900Y86775D02*
X81450D01*
X84075Y93275D02*
Y93525D01*
X84925Y93450D02*
Y93725D01*
X104695Y86950D02*
Y89330D01*
X104250Y89775D02*
X104695Y89330D01*
X69100Y88225D02*
X69325Y88000D01*
X69575D01*
X94925Y102050D02*
Y102200D01*
X95450Y102725D01*
X96300Y106200D02*
Y107050D01*
X100550Y104700D02*
X101295D01*
X100475Y104625D02*
X100550Y104700D01*
X105105Y103755D02*
Y104700D01*
X103835Y103810D02*
Y104700D01*
X100475Y103550D02*
X103575D01*
X103835Y103810D01*
X104425Y103075D02*
X105105Y103755D01*
X101050Y103075D02*
X104425D01*
X100700Y102725D02*
X101050Y103075D01*
X100475Y102725D02*
X100700D01*
X106350Y103375D02*
Y103625D01*
X107125Y104400D01*
X107500D01*
X96300Y104000D02*
Y104600D01*
X86725Y96700D02*
X89050D01*
X90475Y98125D01*
X91225D01*
X88525Y97575D02*
X90250Y99300D01*
X98600D01*
X88800Y97150D02*
X90500Y98850D01*
X98350D01*
X69100Y86900D02*
X69750D01*
X69100Y85275D02*
X70775Y86950D01*
X65400Y80125D02*
X65825Y80550D01*
X65400Y79925D02*
Y80125D01*
X69100Y84900D02*
Y85275D01*
X60625Y78650D02*
X63000Y81025D01*
X66175D01*
X69750Y86900D02*
X70100Y87250D01*
X70275Y87425D01*
X78650Y95800D02*
X79050D01*
X79550D02*
Y96825D01*
X79300Y97075D02*
X79550Y96825D01*
X80050Y95800D02*
Y97000D01*
X79525Y97525D02*
X80050Y97000D01*
X74175Y98175D02*
X75750Y96600D01*
X77850D01*
X78650Y95800D01*
X71075Y81375D02*
Y81575D01*
X71925Y81375D02*
Y81625D01*
X82550Y95800D02*
Y99300D01*
X79050Y83675D02*
Y84600D01*
X76400Y80500D02*
Y81025D01*
X79050Y83675D01*
X86750Y83100D02*
Y83425D01*
X86050Y82775D02*
X86575Y82250D01*
X86750D01*
X75575Y80175D02*
Y80475D01*
X75125Y79725D02*
X75575Y80175D01*
X74450Y79725D02*
X75125D01*
X73180Y78455D02*
X74450Y79725D01*
X73180Y78000D02*
Y78455D01*
Y78655D01*
X78675Y85775D02*
X80375D01*
X71850Y79725D02*
X73775D01*
X74425Y80375D01*
X74725D01*
X69850Y80225D02*
X73500D01*
X71925Y81625D02*
X72325Y82025D01*
X71075Y81575D02*
X71850Y82350D01*
X83550Y95800D02*
Y99375D01*
X76300Y101125D02*
X78675D01*
X86000Y101550D02*
X86025D01*
X88250Y101375D02*
Y103800D01*
X69100Y88900D02*
Y89475D01*
X76100Y97525D02*
X79525D01*
X75900Y97075D02*
X79300D01*
X71100Y84600D02*
Y86350D01*
X66425Y79925D02*
X71100Y84600D01*
X66175Y81025D02*
X69100Y83950D01*
Y84800D01*
Y89475D02*
X70200Y90575D01*
X75100D01*
X98350Y98850D02*
X100550Y96650D01*
X98600Y99300D02*
X101025Y96875D01*
Y95575D02*
Y96875D01*
Y95575D02*
X103750Y92850D01*
X104695D01*
X100550Y95375D02*
Y96650D01*
Y95375D02*
X104275Y91650D01*
X108175D01*
X108505Y91980D01*
X71525Y88950D02*
X71775Y88700D01*
X88275Y101100D02*
X88500D01*
X84050Y95800D02*
Y99200D01*
X85800Y100950D02*
Y103800D01*
X87375Y101425D02*
X88225D01*
X84050Y99200D02*
X84775Y99925D01*
X85875D01*
X87375Y101425D01*
X83550Y99375D02*
X84575Y100400D01*
X85250D01*
X85800Y100950D01*
X78675Y101125D02*
X80325Y99475D01*
X81725D01*
X82050Y99150D01*
X77200Y88950D02*
X78175D01*
X78200Y88975D01*
X78375D01*
X81100Y103175D02*
Y104800D01*
X82225Y99625D02*
X82550Y99300D01*
X82225Y99625D02*
Y102050D01*
X81100Y103175D02*
X82225Y102050D01*
X82450Y92300D02*
X83200Y93050D01*
X73500Y80225D02*
X74400Y81125D01*
X75725D01*
X73325Y80700D02*
X74200Y81575D01*
X75500D01*
X71850Y82350D02*
Y83250D01*
X76050Y87450D01*
X77200D01*
X72775Y81375D02*
Y82825D01*
X76400Y86450D01*
X77200D01*
X72325Y82025D02*
Y83075D01*
X76200Y86950D01*
X77200D01*
X75525Y89600D02*
X75875Y89950D01*
X77200D01*
X76200Y88950D02*
X77200D01*
X74200Y88700D02*
X75300D01*
X76050Y89450D01*
X78125D01*
X75400Y88150D02*
X76200Y88950D01*
X74200Y87000D02*
X74900D01*
X75400Y87500D01*
Y88150D01*
X70775Y86950D02*
Y89150D01*
X71225Y89600D01*
X75525D01*
X70275Y87425D02*
Y89350D01*
X71000Y90075D01*
X75325D01*
X71775Y88700D02*
X72600D01*
Y87000D02*
Y88700D01*
X66375Y80550D02*
X70475Y84650D01*
Y85725D01*
X79225Y92300D02*
X82450D01*
X74325Y98650D02*
X75900Y97075D01*
X74750Y98875D02*
X76100Y97525D01*
X73025Y100875D02*
X73250Y100650D01*
X73025Y100875D02*
Y105100D01*
X72200Y105925D02*
Y106950D01*
Y105925D02*
X73025Y105100D01*
X94170Y107180D02*
Y108150D01*
X98200Y104000D02*
Y104600D01*
X95450Y102725D02*
X95850D01*
X95925Y102050D02*
X96275Y102400D01*
X78225Y109375D02*
X79625D01*
X77775Y108200D02*
X78800D01*
X76150Y107300D02*
X78225Y109375D01*
X76625Y107050D02*
X77775Y108200D01*
X96710Y107460D02*
Y108150D01*
X94170Y107180D02*
X94400Y106950D01*
Y103425D02*
X94450Y103375D01*
X94400Y103425D02*
Y104600D01*
X95475Y103375D02*
X95675D01*
X96300Y104000D01*
X94400Y106200D02*
Y106950D01*
X96300Y107050D02*
X96710Y107460D01*
X83200Y93050D02*
Y93325D01*
X78625Y88500D02*
X81975Y91850D01*
X82650D01*
X84075Y93275D01*
X78875Y88075D02*
X82150Y91350D01*
X82825D01*
X84925Y93450D01*
X81050Y93975D02*
Y95800D01*
Y93975D02*
X81950Y93075D01*
X82325D01*
X80550Y93800D02*
Y95800D01*
Y93800D02*
X81150Y93200D01*
Y92950D02*
Y93200D01*
X78600Y91675D02*
X79225Y92300D01*
X80350Y90950D02*
Y91650D01*
X78375Y88975D02*
X80350Y90950D01*
X78125Y89450D02*
X79475Y90800D01*
Y91650D01*
X78600Y90750D02*
Y91675D01*
X77200Y90450D02*
X78300D01*
X78600Y90750D01*
X81300Y87375D02*
X82275Y88350D01*
X80525Y87375D02*
X81300D01*
X80425Y87475D02*
X80525Y87375D01*
X79800Y86875D02*
X79900Y86775D01*
X75725Y81125D02*
X78175Y83575D01*
Y85275D01*
X78675Y85775D01*
X75500Y81575D02*
X77700Y83775D01*
Y85425D01*
X78500Y86225D01*
X98200Y106200D02*
Y106625D01*
X99250Y107675D01*
Y108150D01*
X95850Y102725D02*
X96675Y103550D01*
X97750D01*
X98200Y104000D01*
X101325Y106475D02*
X102565Y105235D01*
X99650Y106475D02*
X101325D01*
X96275Y102400D02*
X98200D01*
Y102975D01*
X99125Y103900D01*
Y105950D01*
X99650Y106475D01*
D31*
X113450Y89750D02*
X114900Y91200D01*
X107350Y89750D02*
X113450D01*
X105965Y88365D02*
X107350Y89750D01*
X105965Y85790D02*
Y88365D01*
X114900Y86200D02*
Y87325D01*
X103835Y97590D02*
Y100310D01*
X114900Y105200D02*
Y106200D01*
X102400Y97400D02*
X102565Y97565D01*
X102400Y96275D02*
Y97400D01*
X103835Y97590D02*
X104000Y97425D01*
Y96275D02*
Y97425D01*
X103835Y100310D02*
X104525Y101000D01*
X108075D01*
X108875Y101800D01*
X106900Y102800D02*
X112500D01*
X114900Y105200D01*
X105925Y101825D02*
X106900Y102800D01*
X102565Y97565D02*
Y100140D01*
X104250Y101825D01*
X105925D01*
X107235Y85840D02*
Y88360D01*
X107725Y88850D01*
X113375D01*
X114900Y87325D01*
X108875Y101800D02*
X113075D01*
X113675Y101200D01*
X114900D01*
X105700Y85525D02*
X105965Y85790D01*
X105700Y84900D02*
Y85525D01*
X107235Y85840D02*
X107500Y85575D01*
Y84900D02*
Y85575D01*
X103800Y83300D02*
X107500D01*
X91650Y85600D02*
X92800D01*
D32*
X97700Y93750D02*
Y94400D01*
X90900Y95200D02*
X91600D01*
X90300Y94600D02*
X90900Y95200D01*
X90300Y94350D02*
Y94600D01*
X89400Y93450D02*
X90300Y94350D01*
X94025Y92275D02*
X94525Y91775D01*
X93175Y92275D02*
X94025D01*
X85775Y90300D02*
Y91650D01*
X86625Y89450D02*
X89675D01*
X85775Y90300D02*
X86625Y89450D01*
X88400Y93950D02*
Y94300D01*
X90500Y92675D02*
Y92825D01*
X90275Y92450D02*
X90500Y92675D01*
X88400Y92450D02*
X90275D01*
X88400Y92950D02*
X89750D01*
X88400Y93450D02*
X89400D01*
X88400Y88950D02*
X89375D01*
X87050Y88450D02*
X88400D01*
X91600Y95200D02*
Y95425D01*
X90275Y96175D02*
X91475D01*
X88400Y94300D02*
X90275Y96175D01*
X91475D02*
X92725Y97425D01*
X90500Y92825D02*
X91425Y93750D01*
X89750Y92950D02*
X91100Y94300D01*
X93200Y95175D02*
X94025Y96000D01*
X95900D01*
X91100Y94300D02*
X92550D01*
X93200Y94950D01*
Y95175D01*
X91425Y93750D02*
X94600D01*
X96725Y91625D01*
X95900Y93375D02*
Y94400D01*
X98075Y89400D02*
X98525Y88950D01*
X98580Y78000D02*
Y80280D01*
X98200Y86800D02*
Y87050D01*
X98525Y87375D01*
Y88950D01*
X99000Y86800D02*
Y87025D01*
X99175Y87200D01*
Y89350D01*
X98475Y90050D02*
X99175Y89350D01*
X95900Y93375D02*
X96600Y92675D01*
X98580Y80280D02*
X101675Y83375D01*
X98850Y90700D02*
X99800Y89750D01*
Y86800D02*
Y89750D01*
X98400Y91700D02*
X98875D01*
X100500Y90075D01*
X96600Y92675D02*
X99000D01*
X101075Y90600D01*
X101675Y83375D02*
Y90875D01*
X90525Y82525D02*
X90675Y82675D01*
Y88450D01*
X89675Y89450D02*
X90675Y88450D01*
X89375Y88950D02*
X90100Y88225D01*
X89475Y85100D02*
X90100Y85725D01*
Y88225D01*
X86675Y88075D02*
X87050Y88450D01*
X93500Y78000D02*
Y79475D01*
X100500Y86475D01*
Y90075D01*
X101120Y78000D02*
X101800Y78680D01*
Y82450D01*
X102275Y82925D01*
X67500Y84900D02*
Y89800D01*
X91325Y92275D02*
X91575D01*
Y92525D01*
X88400Y91950D02*
X91075D01*
X92325Y93200D01*
X94125D01*
X96040Y78000D02*
Y78590D01*
X101075Y83625D01*
Y90600D01*
X92725Y97425D02*
X98150D01*
X91600Y95425D02*
X93025Y96850D01*
X96875D01*
X97762Y95963D01*
X98150Y97425D02*
X99637Y95938D01*
X102275Y82925D02*
Y91175D01*
X99600Y93850D02*
Y94400D01*
Y93850D02*
X102275Y91175D01*
X97700Y93750D02*
X98175Y93275D01*
X99275D01*
X101675Y90875D01*
X88400Y91450D02*
X92350D01*
X93175Y92275D01*
X94125Y93200D02*
X95425Y91900D01*
Y91525D02*
Y91900D01*
Y91525D02*
X96250Y90700D01*
X98850D01*
X94525Y91500D02*
Y91775D01*
Y91500D02*
X95975Y90050D01*
X98475D01*
X95750Y89400D02*
X98075D01*
X94200Y90950D02*
X95750Y89400D01*
X88400Y90950D02*
X94200D01*
D33*
X52500Y95838D02*
D03*
D34*
X55050Y99488D02*
D03*
D35*
Y91875D02*
D03*
D36*
X55513Y92500D02*
D03*
D37*
X69525Y101200D02*
D03*
D38*
X98200Y100425D02*
D03*
X101295Y99225D02*
D03*
X103800Y85325D02*
D03*
X107500Y98975D02*
D03*
D39*
X100870Y98800D02*
D03*
D40*
X68700Y108200D02*
D03*
D41*
X68100Y108800D02*
D03*
D42*
X87375Y106050D02*
D03*
X65900Y81775D02*
D03*
X63300Y87900D02*
D03*
X64400D02*
D03*
Y86900D02*
D03*
X63300D02*
D03*
X109300Y86975D02*
D03*
X70100Y87250D02*
D03*
X69575Y88000D02*
D03*
X71525Y88950D02*
D03*
X99800Y86800D02*
D03*
X99000D02*
D03*
X96950Y88100D02*
D03*
X98200Y86800D02*
D03*
X94100Y87600D02*
D03*
X93100Y88800D02*
D03*
X83750Y91250D02*
D03*
X80150Y92975D02*
D03*
X82000Y94150D02*
D03*
X85775Y91700D02*
D03*
X71075Y81375D02*
D03*
X71925D02*
D03*
X72775D02*
D03*
X90500Y92675D02*
D03*
X85325Y97725D02*
D03*
X83200Y93325D02*
D03*
X84925Y93725D02*
D03*
X80350Y91650D02*
D03*
X84075Y93525D02*
D03*
X76400Y80500D02*
D03*
X77300D02*
D03*
X78200D02*
D03*
X80550Y82500D02*
D03*
X82200Y81425D02*
D03*
X74725Y80375D02*
D03*
X75575Y80475D02*
D03*
X92700Y90250D02*
D03*
X95250Y86250D02*
D03*
X83375Y86175D02*
D03*
X89475Y85100D02*
D03*
X81100Y97575D02*
D03*
X78800Y87200D02*
D03*
X63375Y80350D02*
D03*
X94925Y102050D02*
D03*
X94450Y103375D02*
D03*
X95475D02*
D03*
X91225Y98125D02*
D03*
X57175Y99375D02*
D03*
X58325Y99400D02*
D03*
X101925Y82575D02*
D03*
X94900Y82350D02*
D03*
X90525Y82525D02*
D03*
X106150Y96075D02*
D03*
X105325D02*
D03*
X106350Y103375D02*
D03*
X86750Y82250D02*
D03*
Y83100D02*
D03*
X102825Y106150D02*
D03*
X88800Y85700D02*
D03*
X86675Y88075D02*
D03*
X84875Y91700D02*
D03*
X85775Y88050D02*
D03*
X83400Y87200D02*
D03*
X81050Y88075D02*
D03*
X80425Y87475D02*
D03*
X79800Y86875D02*
D03*
X86400Y92475D02*
D03*
X104250Y89775D02*
D03*
X95925Y102050D02*
D03*
X100475Y103550D02*
D03*
Y102725D02*
D03*
Y104625D02*
D03*
X106225Y104975D02*
D03*
X97700Y98150D02*
D03*
X75250Y91700D02*
D03*
X71100Y86350D02*
D03*
X70475Y85725D02*
D03*
X66225Y79925D02*
D03*
X65400D02*
D03*
X78825Y99800D02*
D03*
X76300Y98700D02*
D03*
X79600Y81900D02*
D03*
X76175Y84950D02*
D03*
X67500Y89800D02*
D03*
X73600Y82025D02*
D03*
X87850Y84075D02*
D03*
X86825Y80900D02*
D03*
X89575Y80225D02*
D03*
X92350D02*
D03*
X68675Y80875D02*
D03*
X66275Y104475D02*
D03*
Y105400D02*
D03*
X66300Y106350D02*
D03*
X95775Y80125D02*
D03*
X98700Y82425D02*
D03*
X99675Y80025D02*
D03*
X101000Y81575D02*
D03*
X103375Y80100D02*
D03*
X105275Y82050D02*
D03*
X91375Y97150D02*
D03*
X103450Y88350D02*
D03*
X106225Y89900D02*
D03*
X100025Y99225D02*
D03*
X102675Y102050D02*
D03*
X94400Y100150D02*
D03*
X100925Y93775D02*
D03*
X71575Y87600D02*
D03*
X73125Y85700D02*
D03*
X71900Y84725D02*
D03*
X66075Y84600D02*
D03*
X66100Y87625D02*
D03*
X59675Y80300D02*
D03*
X62000Y83550D02*
D03*
X61975Y81375D02*
D03*
X59700Y86625D02*
D03*
X52575Y83000D02*
D03*
X54050Y86200D02*
D03*
X56650Y86300D02*
D03*
X57775Y94500D02*
D03*
X57350Y90650D02*
D03*
X52400Y89425D02*
D03*
X68525Y93350D02*
D03*
X71275Y92525D02*
D03*
X72900Y94400D02*
D03*
X67800Y97925D02*
D03*
X71125Y96825D02*
D03*
X76775Y95475D02*
D03*
X73500Y99250D02*
D03*
X67875Y102775D02*
D03*
X71025Y104950D02*
D03*
X70625Y109700D02*
D03*
X77750Y106375D02*
D03*
X83050Y100225D02*
D03*
X84400Y102600D02*
D03*
X82450Y105025D02*
D03*
X85775Y109625D02*
D03*
X91525Y109675D02*
D03*
X87200Y100075D02*
D03*
X92625Y105650D02*
D03*
X80050Y106375D02*
D03*
X52425Y104300D02*
D03*
X57250Y101250D02*
D03*
X57625Y109675D02*
D03*
X60825Y107850D02*
D03*
X64400Y109950D02*
D03*
X80300Y109975D02*
D03*
X103850Y109700D02*
D03*
X109250Y104125D02*
D03*
X111950Y109550D02*
D03*
X121800Y109400D02*
D03*
X108100Y96675D02*
D03*
X110900Y87350D02*
D03*
X110775Y82200D02*
D03*
X111675Y77700D02*
D03*
X121700Y77800D02*
D03*
X122000Y88700D02*
D03*
X122100Y103700D02*
D03*
X115375Y103700D02*
D03*
X115450Y88700D02*
D03*
X117275Y83900D02*
D03*
X117425Y93250D02*
D03*
X117475Y98875D02*
D03*
X111650Y100375D02*
D03*
X112200Y90950D02*
D03*
X75775Y104000D02*
D03*
X52350Y101350D02*
D03*
X81100Y100175D02*
D03*
X82325Y93075D02*
D03*
X81150Y92950D02*
D03*
X79475Y91650D02*
D03*
X73675Y101400D02*
D03*
X73250Y100650D02*
D03*
X100100Y105625D02*
D03*
D43*
X60400Y102270D02*
D03*
Y89130D02*
D03*
D44*
X107800Y79200D02*
D03*
X53800D02*
D03*
X107800Y108200D02*
D03*
X53800D02*
D03*
D45*
X89300D02*
D03*
X87300D02*
D03*
X82800D02*
D03*
X80800D02*
D03*
X78800D02*
D03*
D46*
X63020D02*
D03*
X68100D02*
D03*
X65560D02*
D03*
D47*
X114900Y106200D02*
D03*
Y101200D02*
D03*
Y96200D02*
D03*
X119900D02*
D03*
X114900Y91200D02*
D03*
X119900D02*
D03*
X114900Y86200D02*
D03*
X119900D02*
D03*
X114900Y81200D02*
D03*
X119900D02*
D03*
Y101200D02*
D03*
Y106200D02*
D03*
D48*
X74740Y109490D02*
D03*
Y106950D02*
D03*
X72200D02*
D03*
Y109490D02*
D03*
M02*
