%FSLAX43Y43*%
%MOMM*%
G71*
G01*
G75*
G04 Layer_Physical_Order=2*
G04 Layer_Color=16711680*
%ADD10R,0.800X0.900*%
%ADD11R,2.880X1.120*%
%ADD12R,0.900X1.270*%
%ADD13R,1.000X1.800*%
%ADD14R,1.400X1.200*%
%ADD15R,0.300X1.600*%
%ADD16R,1.600X0.300*%
%ADD17R,0.900X0.800*%
%ADD18R,0.508X0.559*%
%ADD19R,1.270X0.900*%
G04:AMPARAMS|DCode=20|XSize=1.9mm|YSize=3.3mm|CornerRadius=0mm|HoleSize=0mm|Usage=FLASHONLY|Rotation=180.000|XOffset=0mm|YOffset=0mm|HoleType=Round|Shape=Octagon|*
%AMOCTAGOND20*
4,1,8,0.475,-1.650,-0.475,-1.650,-0.950,-1.175,-0.950,1.175,-0.475,1.650,0.475,1.650,0.950,1.175,0.950,-1.175,0.475,-1.650,0.0*
%
%ADD20OCTAGOND20*%

%ADD21R,0.700X1.800*%
%ADD22R,0.700X1.350*%
%ADD23R,0.800X0.800*%
%ADD24R,1.600X2.200*%
%ADD25R,1.350X0.400*%
%ADD26R,1.900X1.900*%
%ADD27R,1.900X1.800*%
%ADD28R,0.600X1.400*%
%ADD29R,1.800X2.500*%
%ADD30C,0.200*%
%ADD31C,0.400*%
%ADD32C,0.300*%
%ADD33R,0.550X11.375*%
%ADD34R,0.550X2.225*%
%ADD35R,0.550X2.300*%
%ADD36R,1.975X0.550*%
%ADD37R,1.400X0.400*%
%ADD38R,0.400X1.400*%
%ADD39R,1.400X0.400*%
%ADD40R,2.150X0.500*%
%ADD41R,0.500X2.150*%
%ADD42C,0.600*%
%ADD43C,3.200*%
%ADD44C,1.000*%
%ADD45C,1.500*%
%ADD46C,1.700*%
%ADD47C,2.000*%
%ADD48C,1.800*%
%ADD49R,1.143X1.270*%
%ADD50R,4.800X0.650*%
%ADD51R,0.650X4.800*%
%ADD52R,3.175X0.650*%
%ADD53R,0.500X3.425*%
%ADD54R,3.625X0.600*%
%ADD55R,0.600X3.625*%
G36*
X102150Y86350D02*
Y85300D01*
X101675D01*
Y85675D01*
X101425Y85925D01*
X100600D01*
X100350Y86175D01*
Y87025D01*
X100025Y87350D01*
X97975D01*
X97650Y87025D01*
Y86650D01*
X97400Y86400D01*
X96800D01*
X96225Y85825D01*
X94550D01*
X94450Y85725D01*
Y85300D01*
X93925D01*
Y85675D01*
X93775Y85825D01*
X92650D01*
X92500Y85675D01*
Y85250D01*
X92100D01*
Y86200D01*
X92325Y86425D01*
X94725D01*
X95375Y87075D01*
X96825D01*
X97700Y87950D01*
X100550D01*
X102150Y86350D01*
D02*
G37*
G36*
X66925Y106375D02*
Y99800D01*
X65800Y98675D01*
Y94725D01*
X68725Y91800D01*
X74250D01*
X80750Y98300D01*
X81375D01*
X81850Y97825D01*
Y96950D01*
X78500Y93600D01*
Y91600D01*
X79000Y91100D01*
X82400D01*
X83150Y90350D01*
X83775D01*
X84575Y91150D01*
X88925D01*
X90425Y89650D01*
X93225D01*
X95475Y91900D01*
X103600D01*
X104800Y93100D01*
Y103550D01*
X102425Y105925D01*
Y106325D01*
X102675Y106575D01*
X103600D01*
X106775Y103400D01*
Y96825D01*
X107100Y96500D01*
Y91800D01*
X104700Y89400D01*
X96650D01*
X94400Y87150D01*
X88475D01*
X87000Y88625D01*
X85575D01*
X84725Y87775D01*
X83202D01*
X82700Y87309D01*
Y84275D01*
X81225Y82800D01*
Y82350D01*
X80900Y82025D01*
X80450D01*
X80175Y82300D01*
Y83425D01*
X81425Y84675D01*
Y87675D01*
X81600Y87850D01*
Y88300D01*
X81275Y88625D01*
X67375D01*
X65775Y88625D01*
X65500Y88900D01*
Y90500D01*
X62500Y93500D01*
X62500Y95950D01*
X61400Y97050D01*
X59375D01*
X59100Y97325D01*
Y98850D01*
X59350Y99100D01*
X62600D01*
X64875Y101375D01*
Y105975D01*
X65750Y106850D01*
X66450D01*
X66925Y106375D01*
D02*
G37*
G36*
X65075Y90400D02*
Y86775D01*
X64350Y86050D01*
X63175D01*
X62700Y86525D01*
Y90975D01*
X63125Y91400D01*
X64075D01*
X65075Y90400D01*
D02*
G37*
G36*
X58750Y99525D02*
Y97300D01*
X58500Y97050D01*
X56675D01*
X56350Y97375D01*
Y99525D01*
X56675Y99850D01*
X58425D01*
X58750Y99525D01*
D02*
G37*
G36*
X99550Y82675D02*
Y80825D01*
X100475Y79900D01*
Y79750D01*
X100325Y79600D01*
X98400D01*
X97825Y80175D01*
Y82175D01*
X98500Y82850D01*
X99375D01*
X99550Y82675D01*
D02*
G37*
G36*
X87575Y86750D02*
Y85250D01*
X88500Y84325D01*
Y81750D01*
X86350Y79600D01*
X84800D01*
X84650Y79750D01*
Y79975D01*
X86375Y81700D01*
X86975D01*
X87300Y82025D01*
Y83325D01*
X86975Y83650D01*
X86525D01*
X86200Y83325D01*
Y83200D01*
X84025Y81025D01*
X80600D01*
X80150Y81475D01*
X79350D01*
X78900Y81925D01*
X75600D01*
X74600Y80925D01*
X74500D01*
X74225Y80650D01*
X73900D01*
X73325Y81225D01*
Y81600D01*
X73000Y81925D01*
X70850D01*
X70525Y81600D01*
Y81150D01*
X70725Y80950D01*
Y79825D01*
X70500Y79600D01*
X68300D01*
X67625Y80275D01*
X66725D01*
X66525Y80475D01*
X64950D01*
X64800Y80625D01*
Y81225D01*
X65950Y82375D01*
X79200D01*
X79475Y82650D01*
X79775D01*
X79925Y82500D01*
Y82175D01*
X80325Y81775D01*
X81000D01*
X81500Y82275D01*
Y82625D01*
X83000Y84125D01*
Y86400D01*
X83250Y86650D01*
X83650D01*
X84025Y87025D01*
X85050D01*
X85525Y87500D01*
X86825D01*
X87575Y86750D01*
D02*
G37*
G36*
X93100Y80625D02*
Y79775D01*
X92900Y79575D01*
X91700D01*
X91575Y79450D01*
Y78800D01*
X90350D01*
Y79425D01*
X90200Y79575D01*
X89000D01*
X88825Y79750D01*
Y80075D01*
X89600Y80850D01*
X92875D01*
X93100Y80625D01*
D02*
G37*
G36*
X96325Y82125D02*
Y79775D01*
X96150Y79600D01*
X94125D01*
X93900Y79825D01*
Y81375D01*
X93000Y82275D01*
Y82700D01*
X93175Y82875D01*
X95575D01*
X96325Y82125D01*
D02*
G37*
G36*
X123000Y109600D02*
Y105500D01*
Y100475D01*
Y95475D01*
Y90475D01*
Y85475D01*
Y80475D01*
Y77500D01*
X122500Y77000D01*
X111075D01*
X110850Y77225D01*
Y80450D01*
X109050Y82250D01*
X106525D01*
X104750Y80475D01*
Y79875D01*
X104375Y79500D01*
Y79075D01*
X102975D01*
Y79500D01*
X102875Y79600D01*
X101750D01*
X101575Y79775D01*
Y80075D01*
X100425Y81225D01*
Y82625D01*
X100650Y82850D01*
X101150D01*
X101350Y82650D01*
Y82350D01*
X101675Y82025D01*
X102175D01*
X102475Y82325D01*
Y82675D01*
X102700Y82900D01*
Y85675D01*
X102425Y85950D01*
Y86450D01*
X100675Y88200D01*
X97600D01*
X96700Y87300D01*
X96150D01*
X95975Y87475D01*
Y87700D01*
X97025Y88750D01*
X107000D01*
X108750Y87000D01*
Y86725D01*
X109050Y86425D01*
X109525D01*
X109850Y86750D01*
Y87225D01*
X109550Y87525D01*
X109275D01*
X107325Y89475D01*
X105825D01*
X105650Y89650D01*
Y89875D01*
X107425Y91650D01*
Y96625D01*
X107050Y97000D01*
Y103025D01*
Y103500D01*
X103700Y106850D01*
X102475D01*
X102125Y106500D01*
Y105750D01*
X102725Y105150D01*
X104475Y103400D01*
Y93225D01*
X103450Y92200D01*
X95325D01*
X93050Y89925D01*
X90550D01*
X89750Y90725D01*
Y91075D01*
X89825Y91150D01*
X90200D01*
X90375Y91325D01*
Y91700D01*
X90925Y92250D01*
Y92300D01*
X91050Y92425D01*
Y92900D01*
X90725Y93225D01*
X90275D01*
X89800Y92750D01*
X87450D01*
X86800Y92100D01*
X86175D01*
X85925Y92350D01*
Y92625D01*
X86300Y93000D01*
X87050D01*
X90925Y96875D01*
Y97375D01*
X91125Y97575D01*
X91450D01*
X91775Y97900D01*
Y98500D01*
X94325Y101050D01*
X95475D01*
X95925Y101500D01*
X96175D01*
X96475Y101800D01*
Y102550D01*
X96625Y102700D01*
X99700D01*
X100225Y102175D01*
X100725D01*
X101025Y102475D01*
Y104850D01*
X100700Y105175D01*
X100250D01*
X99925Y104850D01*
Y104575D01*
X99750Y104400D01*
X96800D01*
X95875Y105325D01*
X93600D01*
X87825Y99550D01*
Y98050D01*
X85675Y95900D01*
X84300D01*
X81925Y93525D01*
X80950D01*
X80600Y93175D01*
Y92700D01*
X80650Y92650D01*
X80900Y92400D01*
X81175D01*
X81600Y91975D01*
X84175D01*
X84325Y91825D01*
Y91250D01*
X83650Y90575D01*
X83250D01*
X82450Y91375D01*
X81000D01*
X80900Y91475D01*
Y91875D01*
X80575Y92200D01*
X80375D01*
X79725Y92850D01*
Y93175D01*
X83075Y96525D01*
Y98300D01*
X81975Y99400D01*
X77925D01*
X76025Y101300D01*
X74400D01*
X74225Y101475D01*
Y101625D01*
X73900Y101950D01*
X73450D01*
X73125Y101625D01*
Y101300D01*
X72700Y100875D01*
Y100400D01*
X73000Y100100D01*
X75500D01*
X77275Y98325D01*
X79500D01*
X79725Y98100D01*
Y97775D01*
X74075Y92125D01*
X68875D01*
X66125Y94875D01*
Y98550D01*
X67275Y99700D01*
Y106700D01*
X67475Y106900D01*
X68625D01*
X69400Y107675D01*
Y108725D01*
X68625Y109500D01*
X62475D01*
X61725Y108750D01*
Y107650D01*
X62475Y106900D01*
X64750D01*
X64925Y106725D01*
Y106475D01*
X64550Y106100D01*
Y101525D01*
X62475Y99450D01*
X59275D01*
X58525Y100200D01*
X56500D01*
X56025Y99725D01*
Y97250D01*
X56525Y96750D01*
X61250D01*
X62150Y95850D01*
Y93325D01*
X63150Y92325D01*
Y91925D01*
X62150Y90925D01*
X61550D01*
X61300Y91175D01*
X59525D01*
X58350Y90000D01*
Y88275D01*
X59550Y87075D01*
X61250D01*
X61950Y87775D01*
X62175D01*
X62350Y87600D01*
Y86475D01*
X63075Y85750D01*
X64525D01*
X65375Y86600D01*
Y88025D01*
X65625Y88275D01*
X68775D01*
X69025Y88025D01*
Y86650D01*
X69925Y85750D01*
Y85475D01*
X70225Y85175D01*
X70725D01*
X71025Y85475D01*
Y85600D01*
X71225Y85800D01*
X71350D01*
X71650Y86100D01*
Y86575D01*
X71325Y86900D01*
X70750D01*
X70650Y87000D01*
Y87500D01*
X70275Y87875D01*
Y88125D01*
X70450Y88300D01*
X79725D01*
X79875Y88150D01*
Y87725D01*
X79250Y87100D01*
Y86650D01*
X79750Y86150D01*
Y85350D01*
X78375Y83975D01*
X65325D01*
X63025Y81675D01*
Y80775D01*
X62825Y80575D01*
Y80225D01*
X62650Y80050D01*
X60575D01*
X60125Y79600D01*
X58750D01*
X58600Y79450D01*
Y78525D01*
X57300D01*
Y79550D01*
X56875Y79975D01*
Y80500D01*
X55075Y82300D01*
X52075D01*
X51600Y82775D01*
Y101175D01*
Y104850D01*
X51900Y105150D01*
X55075D01*
X56850Y106925D01*
Y110125D01*
X57125Y110400D01*
X70700D01*
X70900Y110200D01*
Y110050D01*
X71050Y109900D01*
X75825D01*
X76025Y110100D01*
Y110200D01*
X76225Y110400D01*
X104450D01*
X104750Y110100D01*
Y106925D01*
X106525Y105150D01*
X109075D01*
X110850Y106925D01*
Y109975D01*
X111275Y110400D01*
X122200D01*
X123000Y109600D01*
D02*
G37*
%LPC*%
G36*
X120500Y87650D02*
X119300D01*
X118375Y86725D01*
X116425D01*
X115500Y87650D01*
X114300D01*
X113450Y86800D01*
Y85600D01*
X114300Y84750D01*
X115500D01*
X116400Y85650D01*
X118400D01*
X119300Y84750D01*
X120500D01*
X121350Y85600D01*
Y86800D01*
X120500Y87650D01*
D02*
G37*
G36*
X115500Y82650D02*
X114300D01*
X113450Y81800D01*
Y80600D01*
X114300Y79750D01*
X115500D01*
X116350Y80600D01*
Y81800D01*
X115500Y82650D01*
D02*
G37*
G36*
X120500D02*
X119300D01*
X118450Y81800D01*
Y80600D01*
X119300Y79750D01*
X120500D01*
X121350Y80600D01*
Y81800D01*
X120500Y82650D01*
D02*
G37*
G36*
Y102650D02*
X119300D01*
X118375Y101725D01*
X116425D01*
X115500Y102650D01*
X114300D01*
X113450Y101800D01*
Y100575D01*
X114275Y99750D01*
X115500D01*
X116400Y100650D01*
X118400D01*
X119300Y99750D01*
X120500D01*
X121350Y100600D01*
Y101800D01*
X120500Y102650D01*
D02*
G37*
G36*
X61225Y104325D02*
X59550D01*
X58350Y103125D01*
Y101425D01*
X59550Y100225D01*
X61250D01*
X62450Y101425D01*
Y103100D01*
X61225Y104325D01*
D02*
G37*
G36*
X120500Y107650D02*
X119300D01*
X118375Y106725D01*
X116425D01*
X115500Y107650D01*
X114300D01*
X113450Y106800D01*
Y105600D01*
X114300Y104750D01*
X115500D01*
X116400Y105650D01*
X118400D01*
X119300Y104750D01*
X120500D01*
X121350Y105600D01*
Y106800D01*
X120500Y107650D01*
D02*
G37*
G36*
X75850Y109075D02*
X71075D01*
X70900Y108900D01*
Y106425D01*
X71675Y105650D01*
X75275D01*
X76025Y106400D01*
Y108900D01*
X75850Y109075D01*
D02*
G37*
G36*
X83275Y109325D02*
X78300D01*
X77650Y108675D01*
Y107725D01*
X78325Y107050D01*
X83275D01*
X83925Y107700D01*
Y108675D01*
X83275Y109325D01*
D02*
G37*
G36*
X120500Y97650D02*
X119300D01*
X118450Y96800D01*
X118450Y95600D01*
X119300Y94750D01*
X120500D01*
X121350Y95600D01*
Y96800D01*
X120500Y97650D01*
D02*
G37*
G36*
Y92650D02*
X119300D01*
X118375Y91725D01*
X116425D01*
X115500Y92650D01*
X114300D01*
X113450Y91800D01*
Y90600D01*
X114300Y89750D01*
X115500D01*
X116400Y90650D01*
X118400D01*
X119300Y89750D01*
X120500D01*
X121350Y90600D01*
Y91800D01*
X120500Y92650D01*
D02*
G37*
G36*
X89775Y109350D02*
X86825D01*
X86150Y108675D01*
Y108150D01*
X85175Y107175D01*
Y98450D01*
X84675Y97950D01*
Y97500D01*
X85075Y97100D01*
X85575D01*
X86425Y97950D01*
X86429Y101000D01*
Y106329D01*
X87150Y107050D01*
X89775D01*
X90425Y107700D01*
Y108700D01*
X89775Y109350D01*
D02*
G37*
G36*
X115500Y97650D02*
X114300D01*
X113450Y96800D01*
Y95600D01*
X114300Y94750D01*
X115500D01*
X116350Y95600D01*
Y96800D01*
X115500Y97650D01*
D02*
G37*
%LPD*%
G36*
X87600Y108500D02*
Y107900D01*
X86150Y106450D01*
Y98050D01*
X85475Y97375D01*
X85175D01*
X84975Y97575D01*
Y97875D01*
X85450Y98350D01*
Y106950D01*
X87100Y108600D01*
X87500D01*
X87600Y108500D01*
D02*
G37*
D10*
X92125Y81625D02*
D03*
X90525D02*
D03*
X88000Y92000D02*
D03*
X89600D02*
D03*
D17*
X101900Y85100D02*
D03*
Y83500D02*
D03*
X100000D02*
D03*
Y85100D02*
D03*
X98000Y83500D02*
D03*
Y85100D02*
D03*
X96100Y83500D02*
D03*
Y85100D02*
D03*
X94200D02*
D03*
Y83500D02*
D03*
X92300Y85100D02*
D03*
Y83500D02*
D03*
X90400D02*
D03*
Y85100D02*
D03*
D29*
X98580Y78000D02*
D03*
X96040D02*
D03*
X57940D02*
D03*
X60480D02*
D03*
X63020D02*
D03*
X65560D02*
D03*
X68100D02*
D03*
X70640D02*
D03*
X75720D02*
D03*
X93500D02*
D03*
X90960D02*
D03*
X88420D02*
D03*
X85880D02*
D03*
X83340D02*
D03*
X80800D02*
D03*
X78260D02*
D03*
X101120D02*
D03*
X103660D02*
D03*
X73180D02*
D03*
D30*
X96850Y89100D02*
X107175D01*
X94525Y86775D02*
X96850Y89100D01*
X89875Y86775D02*
X94525D01*
X79600Y80225D02*
X80050Y79775D01*
X78725Y80225D02*
X79600D01*
X78450Y80500D02*
X78725Y80225D01*
X79800Y80675D02*
X80225Y80250D01*
X79025Y80675D02*
X79800D01*
X78550Y81150D02*
X79025Y80675D01*
X79375Y79775D02*
X80800Y78350D01*
X77800Y79775D02*
X79375D01*
X77300Y80275D02*
X77800Y79775D01*
X84475Y95525D02*
X85875D01*
X82325Y93375D02*
X84475Y95525D01*
X82325Y93075D02*
Y93375D01*
X84725Y95100D02*
X86075D01*
X83200Y93575D02*
X84725Y95100D01*
X83200Y93325D02*
Y93575D01*
X84925Y94650D02*
X86275D01*
X84075Y93800D02*
X84925Y94650D01*
X84075Y93525D02*
Y93800D01*
X86125Y93375D02*
X86900D01*
X84875Y92125D02*
X86125Y93375D01*
X84875Y91700D02*
Y92125D01*
X85925Y93800D02*
X86675D01*
X84450Y92325D02*
X85925Y93800D01*
X81775Y92325D02*
X84450D01*
X86900Y93375D02*
X90575Y97050D01*
X86675Y93800D02*
X90100Y97225D01*
X86500Y94225D02*
X89625Y97350D01*
X85550Y94225D02*
X86500D01*
X85200Y93875D02*
X85550Y94225D01*
X86275Y94650D02*
X89150Y97525D01*
X86075Y95100D02*
X88700Y97725D01*
X85875Y95525D02*
X88225Y97875D01*
X65775Y82725D02*
X78925D01*
X64450Y81400D02*
X65775Y82725D01*
X64450Y79875D02*
Y81400D01*
X65484Y83625D02*
X78525D01*
X63375Y80350D02*
Y81516D01*
X65484Y83625D01*
X65600Y83175D02*
X78750D01*
X64000Y81575D02*
X65600Y83175D01*
X64000Y80075D02*
Y81575D01*
X63625Y79700D02*
X64000Y80075D01*
X62950Y78725D02*
X63300D01*
X64450Y79875D01*
X63020Y78000D02*
Y78420D01*
X60750Y79700D02*
X63625D01*
X75720Y78000D02*
Y78330D01*
X60480Y78000D02*
Y79430D01*
X83340Y78000D02*
Y79385D01*
X77300Y80275D02*
Y80500D01*
X76400Y80275D02*
Y80500D01*
Y80275D02*
X78260Y78415D01*
X60480Y79430D02*
X60750Y79700D01*
X89625Y97350D02*
Y98825D01*
X90100Y97225D02*
Y98650D01*
X90575Y97050D02*
Y98450D01*
X91225Y98125D02*
Y98475D01*
X107175Y89100D02*
X109300Y86975D01*
X83400Y87200D02*
X83575Y87375D01*
X84850D01*
X85550Y88075D01*
X85775D01*
X94175Y102050D02*
X94925D01*
X99875Y104025D02*
X100475Y104625D01*
X65560Y78000D02*
Y79765D01*
X65400Y79925D02*
X65560Y79765D01*
X66225Y79925D02*
X67475D01*
X68100Y79300D01*
Y78000D02*
Y79300D01*
X69400Y87825D02*
X69575Y88000D01*
X69400Y86800D02*
Y87825D01*
Y86800D02*
X70475Y85725D01*
X70550Y86350D02*
X71100D01*
X70100Y86800D02*
X70550Y86350D01*
X70100Y86800D02*
Y87250D01*
X80050Y79775D02*
X82950D01*
X83340Y79385D01*
X72775Y81275D02*
X75720Y78330D01*
X72775Y81275D02*
Y81375D01*
X71925Y81000D02*
Y81375D01*
Y81000D02*
X73180Y79745D01*
Y78000D02*
Y79745D01*
X71075Y79650D02*
Y81375D01*
X70640Y79215D02*
X71075Y79650D01*
X70640Y78000D02*
Y79215D01*
X78200Y80500D02*
X78450D01*
X86650Y83100D02*
X86750D01*
X84225Y80675D02*
X86650Y83100D01*
X80425Y80675D02*
X84225D01*
X79975Y81125D02*
X80425Y80675D01*
X79175Y81125D02*
X79975D01*
X78700Y81600D02*
X79175Y81125D01*
X86400Y82250D02*
X86750D01*
X84400Y80250D02*
X86400Y82250D01*
X80225Y80250D02*
X84400D01*
X76050Y81150D02*
X78550D01*
X75575Y80675D02*
X76050Y81150D01*
X75575Y80475D02*
Y80675D01*
X74725Y80550D02*
X75775Y81600D01*
X78700D01*
X74725Y80375D02*
Y80550D01*
X88800Y85700D02*
X89875Y86775D01*
X81150Y92950D02*
X81775Y92325D01*
X78875Y93475D02*
X82225Y96825D01*
Y97950D01*
X81500Y98675D02*
X82225Y97950D01*
X78875Y92325D02*
Y93475D01*
Y92325D02*
X79550Y91650D01*
X80350D02*
Y91700D01*
X79350Y92700D02*
X80350Y91700D01*
X79350Y92700D02*
Y93325D01*
X82625Y96600D01*
Y98150D01*
X81675Y99100D02*
X82625Y98150D01*
X77600Y99100D02*
X81675D01*
X73400Y100500D02*
X75600D01*
X77425Y98675D01*
X81500D01*
X75750Y100950D02*
X77600Y99100D01*
X73250Y100650D02*
X73400Y100500D01*
X74125Y100950D02*
X75750D01*
X73675Y101400D02*
X74125Y100950D01*
X89150Y97525D02*
Y99025D01*
X88225Y97875D02*
Y99400D01*
X93775Y104950D01*
X88700Y97725D02*
Y99225D01*
X93975Y104500D01*
X89150Y99025D02*
X94150Y104025D01*
X89625Y98825D02*
X94175Y103375D01*
X90100Y98650D02*
X94175Y102725D01*
X90575Y98450D02*
X94175Y102050D01*
X91225Y98475D02*
X94150Y101400D01*
X95275D01*
X95925Y102050D01*
X94150Y104025D02*
X94825D01*
X95475Y103375D01*
X94175D02*
X94450D01*
X93975Y104500D02*
X95350D01*
X96300Y103550D01*
X100475D01*
X93775Y104950D02*
X95650D01*
X96575Y104025D01*
X99875D01*
X99950Y103075D02*
X100300Y102725D01*
X100475D01*
X94175D02*
X96075D01*
X96425Y103075D01*
X99950D01*
X78925Y82725D02*
X81075Y84875D01*
Y88075D01*
X78750Y83175D02*
X80600Y85025D01*
Y87300D01*
X80425Y87475D02*
X80600Y87300D01*
X78525Y83625D02*
X80125Y85225D01*
Y86550D01*
X79800Y86875D02*
X80125Y86550D01*
D31*
X114900Y106200D02*
X119900D01*
X114900Y101200D02*
X119900D01*
X114900Y91200D02*
X119900D01*
X114900Y86200D02*
X119900D01*
D32*
X92125Y81625D02*
X93025D01*
X101925Y82575D02*
Y83500D01*
X89475Y85100D02*
X90400D01*
X99800Y85750D02*
Y86800D01*
Y85750D02*
X100000Y85550D01*
Y85100D02*
Y85550D01*
X99000Y86100D02*
Y86800D01*
X98000Y85100D02*
X99000Y86100D01*
X98200Y86450D02*
Y86800D01*
X97650Y85900D02*
X98200Y86450D01*
X97050Y85900D02*
X97650D01*
X96250Y85100D02*
X97050Y85900D01*
X93025Y81625D02*
X93500Y81150D01*
Y78000D02*
Y81150D01*
X90525Y81625D02*
Y82525D01*
X88420Y78000D02*
Y80270D01*
X86850Y88075D02*
X88025Y86900D01*
X86675Y88075D02*
X86850D01*
X96040Y78690D02*
X96750Y79400D01*
X96040Y78000D02*
Y78690D01*
X97375Y80000D02*
X98580Y78795D01*
Y78000D02*
Y78795D01*
X88420Y80270D02*
X89500Y81350D01*
Y82600D01*
X90400Y83500D01*
X85880Y78480D02*
X88925Y81525D01*
X88025Y85475D02*
Y86900D01*
Y85475D02*
X88925Y84575D01*
Y81525D02*
Y84575D01*
X100000Y81025D02*
Y83500D01*
Y81025D02*
X101120Y79905D01*
Y78000D02*
Y79905D01*
X94200Y83500D02*
X96100D01*
X90400D02*
X92300D01*
X97375Y80000D02*
Y82350D01*
X98000Y82975D01*
Y83500D01*
X96100Y82975D02*
Y83500D01*
Y82975D02*
X96750Y82325D01*
Y79400D02*
Y82325D01*
X89525Y92000D02*
X90180D01*
X90500Y92320D01*
Y92675D01*
X85775Y91700D02*
X87050D01*
X87350Y92000D01*
X87925D01*
D40*
X83400Y108200D02*
D03*
X89900D02*
D03*
X68700D02*
D03*
D42*
X87375Y106050D02*
D03*
X65900Y81775D02*
D03*
X63300Y87900D02*
D03*
X64400D02*
D03*
Y86900D02*
D03*
X63300D02*
D03*
X109300Y86975D02*
D03*
X70100Y87250D02*
D03*
X69575Y88000D02*
D03*
X71525Y88950D02*
D03*
X99800Y86800D02*
D03*
X99000D02*
D03*
X96950Y88100D02*
D03*
X98200Y86800D02*
D03*
X94100Y87600D02*
D03*
X93100Y88800D02*
D03*
X83750Y91250D02*
D03*
X80150Y92975D02*
D03*
X82000Y94150D02*
D03*
X85775Y91700D02*
D03*
X71075Y81375D02*
D03*
X71925D02*
D03*
X72775D02*
D03*
X90500Y92675D02*
D03*
X85325Y97725D02*
D03*
X83200Y93325D02*
D03*
X84925Y93725D02*
D03*
X80350Y91650D02*
D03*
X84075Y93525D02*
D03*
X76400Y80500D02*
D03*
X77300D02*
D03*
X78200D02*
D03*
X80550Y82500D02*
D03*
X82200Y81425D02*
D03*
X74725Y80375D02*
D03*
X75575Y80475D02*
D03*
X92700Y90250D02*
D03*
X95250Y86250D02*
D03*
X83375Y86175D02*
D03*
X89475Y85100D02*
D03*
X81100Y97575D02*
D03*
X78800Y87200D02*
D03*
X63375Y80350D02*
D03*
X94925Y102050D02*
D03*
X94450Y103375D02*
D03*
X95475D02*
D03*
X91225Y98125D02*
D03*
X57175Y99375D02*
D03*
X58325Y99400D02*
D03*
X101925Y82575D02*
D03*
X94900Y82350D02*
D03*
X90525Y82525D02*
D03*
X106150Y96075D02*
D03*
X105325D02*
D03*
X106350Y103375D02*
D03*
X86750Y82250D02*
D03*
Y83100D02*
D03*
X102825Y106150D02*
D03*
X88800Y85700D02*
D03*
X86675Y88075D02*
D03*
X84875Y91700D02*
D03*
X85775Y88050D02*
D03*
X83400Y87200D02*
D03*
X81050Y88075D02*
D03*
X80425Y87475D02*
D03*
X79800Y86875D02*
D03*
X86400Y92475D02*
D03*
X104250Y89775D02*
D03*
X95925Y102050D02*
D03*
X100475Y103550D02*
D03*
Y102725D02*
D03*
Y104625D02*
D03*
X106225Y104975D02*
D03*
X97700Y98150D02*
D03*
X75250Y91700D02*
D03*
X71100Y86350D02*
D03*
X70475Y85725D02*
D03*
X66225Y79925D02*
D03*
X65400D02*
D03*
X78825Y99800D02*
D03*
X76300Y98700D02*
D03*
X79600Y81900D02*
D03*
X76175Y84950D02*
D03*
X67500Y89800D02*
D03*
X73600Y82025D02*
D03*
X87850Y84075D02*
D03*
X86825Y80900D02*
D03*
X89575Y80225D02*
D03*
X92350D02*
D03*
X68675Y80875D02*
D03*
X66275Y104475D02*
D03*
Y105400D02*
D03*
X66300Y106350D02*
D03*
X95775Y80125D02*
D03*
X98700Y82425D02*
D03*
X99675Y80025D02*
D03*
X101000Y81575D02*
D03*
X103375Y80100D02*
D03*
X105275Y82050D02*
D03*
X91375Y97150D02*
D03*
X103450Y88350D02*
D03*
X106225Y89900D02*
D03*
X100025Y99225D02*
D03*
X102675Y102050D02*
D03*
X94400Y100150D02*
D03*
X100925Y93775D02*
D03*
X71575Y87600D02*
D03*
X73125Y85700D02*
D03*
X71900Y84725D02*
D03*
X66075Y84600D02*
D03*
X66100Y87625D02*
D03*
X59675Y80300D02*
D03*
X62000Y83550D02*
D03*
X61975Y81375D02*
D03*
X59700Y86625D02*
D03*
X52575Y83000D02*
D03*
X54050Y86200D02*
D03*
X56650Y86300D02*
D03*
X57775Y94500D02*
D03*
X57350Y90650D02*
D03*
X52400Y89425D02*
D03*
X68525Y93350D02*
D03*
X71275Y92525D02*
D03*
X72900Y94400D02*
D03*
X67800Y97925D02*
D03*
X71125Y96825D02*
D03*
X76775Y95475D02*
D03*
X73500Y99250D02*
D03*
X67875Y102775D02*
D03*
X71025Y104950D02*
D03*
X70625Y109700D02*
D03*
X77750Y106375D02*
D03*
X83050Y100225D02*
D03*
X84400Y102600D02*
D03*
X82450Y105025D02*
D03*
X85775Y109625D02*
D03*
X91525Y109675D02*
D03*
X87200Y100075D02*
D03*
X92625Y105650D02*
D03*
X80050Y106375D02*
D03*
X52425Y104300D02*
D03*
X57250Y101250D02*
D03*
X57625Y109675D02*
D03*
X60825Y107850D02*
D03*
X64400Y109950D02*
D03*
X80300Y109975D02*
D03*
X103850Y109700D02*
D03*
X109250Y104125D02*
D03*
X111950Y109550D02*
D03*
X121800Y109400D02*
D03*
X108100Y96675D02*
D03*
X110900Y87350D02*
D03*
X110775Y82200D02*
D03*
X111675Y77700D02*
D03*
X121700Y77800D02*
D03*
X122000Y88700D02*
D03*
X122100Y103700D02*
D03*
X115375Y103700D02*
D03*
X115450Y88700D02*
D03*
X117275Y83900D02*
D03*
X117425Y93250D02*
D03*
X117475Y98875D02*
D03*
X111650Y100375D02*
D03*
X112200Y90950D02*
D03*
X75775Y104000D02*
D03*
X52350Y101350D02*
D03*
X81100Y100175D02*
D03*
X82325Y93075D02*
D03*
X81150Y92950D02*
D03*
X79475Y91650D02*
D03*
X73675Y101400D02*
D03*
X73250Y100650D02*
D03*
X100100Y105625D02*
D03*
D43*
X60400Y102270D02*
D03*
Y89130D02*
D03*
D44*
X107800Y79200D02*
D03*
X53800D02*
D03*
X107800Y108200D02*
D03*
X53800D02*
D03*
D45*
X89300D02*
D03*
X87300D02*
D03*
X82800D02*
D03*
X80800D02*
D03*
X78800D02*
D03*
D46*
X63020D02*
D03*
X68100D02*
D03*
X65560D02*
D03*
D47*
X114900Y106200D02*
D03*
Y101200D02*
D03*
Y96200D02*
D03*
X119900D02*
D03*
X114900Y91200D02*
D03*
X119900D02*
D03*
X114900Y86200D02*
D03*
X119900D02*
D03*
X114900Y81200D02*
D03*
X119900D02*
D03*
Y101200D02*
D03*
Y106200D02*
D03*
D48*
X74740Y109490D02*
D03*
Y106950D02*
D03*
X72200D02*
D03*
Y109490D02*
D03*
D49*
X64250Y89700D02*
D03*
X66250D02*
D03*
X57900Y98100D02*
D03*
X59900D02*
D03*
D50*
X60450Y102275D02*
D03*
D51*
X60395Y102320D02*
D03*
Y89180D02*
D03*
D52*
X59537Y89125D02*
D03*
D53*
X68100Y108237D02*
D03*
X82800Y108163D02*
D03*
X89300D02*
D03*
D54*
X114887Y81200D02*
D03*
X119912D02*
D03*
Y96200D02*
D03*
X114887D02*
D03*
D55*
X114900Y81188D02*
D03*
X119900D02*
D03*
Y96213D02*
D03*
X114900D02*
D03*
M02*
