%FSLAX43Y43*%
%MOMM*%
G71*
G01*
G75*
G04 Layer_Color=65535*
%ADD10R,0.800X0.900*%
%ADD11R,2.880X1.120*%
%ADD12R,0.900X1.270*%
%ADD13R,1.000X1.800*%
%ADD14R,1.400X1.200*%
%ADD15R,0.300X1.600*%
%ADD16R,1.600X0.300*%
%ADD17R,0.900X0.800*%
%ADD18R,0.508X0.559*%
%ADD19R,1.270X0.900*%
G04:AMPARAMS|DCode=20|XSize=1.9mm|YSize=3.3mm|CornerRadius=0mm|HoleSize=0mm|Usage=FLASHONLY|Rotation=180.000|XOffset=0mm|YOffset=0mm|HoleType=Round|Shape=Octagon|*
%AMOCTAGOND20*
4,1,8,0.475,-1.650,-0.475,-1.650,-0.950,-1.175,-0.950,1.175,-0.475,1.650,0.475,1.650,0.950,1.175,0.950,-1.175,0.475,-1.650,0.0*
%
%ADD20OCTAGOND20*%

%ADD21R,0.700X1.800*%
%ADD22R,0.700X1.350*%
%ADD23R,0.800X0.800*%
%ADD24R,1.600X2.200*%
%ADD25R,1.350X0.400*%
%ADD26R,1.900X1.900*%
%ADD27R,1.900X1.800*%
%ADD28R,0.600X1.400*%
%ADD29R,1.800X2.500*%
%ADD30C,0.200*%
%ADD31C,0.400*%
%ADD32C,0.300*%
%ADD33R,0.550X11.375*%
%ADD34R,0.550X2.225*%
%ADD35R,0.550X2.300*%
%ADD36R,1.975X0.550*%
%ADD37R,1.400X0.400*%
%ADD38R,0.400X1.400*%
%ADD39R,1.400X0.400*%
%ADD40R,2.150X0.500*%
%ADD41R,0.500X2.150*%
%ADD42C,0.600*%
%ADD43C,3.200*%
%ADD44C,1.000*%
%ADD45C,1.500*%
%ADD46C,1.700*%
%ADD47C,2.000*%
%ADD48C,1.800*%
%ADD49R,1.143X1.270*%
%ADD50R,4.800X0.650*%
%ADD51R,0.650X4.800*%
%ADD52R,3.175X0.650*%
%ADD53R,0.500X3.425*%
%ADD54R,3.625X0.600*%
%ADD55R,0.600X3.625*%
%ADD56C,0.254*%
D30*
X109150Y90517D02*
G03*
X109150Y89283I0J-617D01*
G01*
X105750Y102367D02*
G03*
X105750Y101133I0J-617D01*
G01*
X64120Y108200D02*
G03*
X64120Y108200I-1100J0D01*
G01*
X69200D02*
G03*
X69200Y108200I-1100J0D01*
G01*
X66660D02*
G03*
X66660Y108200I-1100J0D01*
G01*
X73400Y86594D02*
Y87406D01*
X50900Y88700D02*
X58400D01*
X50900Y102700D02*
X58400D01*
X64400Y100300D02*
Y102700D01*
X62400Y88700D02*
X64400D01*
X62400Y102700D02*
X64400D01*
Y88700D02*
Y91100D01*
X90950Y86900D02*
X93850D01*
Y88300D01*
X90950D02*
X93850D01*
X90950Y86900D02*
Y88300D01*
X90900Y82200D02*
Y84000D01*
X94450Y82200D02*
Y84000D01*
X90900D02*
X94450D01*
X90900Y82200D02*
X94450D01*
X87575Y100725D02*
Y102125D01*
X90475D01*
Y100725D02*
Y102125D01*
X87575Y100725D02*
X90475D01*
X84900Y102600D02*
Y105000D01*
X89100Y102600D02*
Y105000D01*
X84900D02*
X89100D01*
X84900Y102600D02*
X89100D01*
X81725Y104300D02*
Y105700D01*
X78825Y104300D02*
X81725D01*
X78825D02*
Y105700D01*
X81725D01*
X77600Y103600D02*
X77700D01*
X77600Y100800D02*
X77700D01*
X82100D02*
X82200D01*
X82100Y103500D02*
X82200Y103400D01*
X77600Y100800D02*
Y103600D01*
X79700D02*
X80100D01*
X82200Y100800D02*
Y103400D01*
X79700Y100800D02*
X80100D01*
X78400Y85800D02*
Y94600D01*
X87200Y85800D02*
Y94000D01*
X78400Y94600D02*
X86600D01*
X78400Y85800D02*
X87200D01*
X86600Y94600D02*
X87200Y94000D01*
X75675Y100475D02*
X77075D01*
X75675D02*
Y103375D01*
X77075D01*
Y100475D02*
Y103375D01*
X68300Y98794D02*
Y99606D01*
Y100794D02*
Y101606D01*
Y96294D02*
Y97106D01*
Y94269D02*
Y95081D01*
X74850Y92200D02*
Y93600D01*
X71950Y92200D02*
X74850D01*
X71950D02*
Y93600D01*
X74850D01*
X68300Y88494D02*
Y89306D01*
Y86494D02*
Y87306D01*
Y84494D02*
Y85306D01*
X103100Y82650D02*
X104500D01*
X103100D02*
Y85550D01*
X104500D01*
Y82650D02*
Y85550D01*
X105294Y84100D02*
X106106D01*
X107094D02*
X107906D01*
X87850Y98200D02*
Y99600D01*
X84950Y98200D02*
X87850D01*
X84950D02*
Y99600D01*
X87850D01*
X91400Y89446D02*
Y89954D01*
X56400Y83225D02*
Y86775D01*
X54600Y83225D02*
Y86775D01*
X56400D01*
X54600Y83225D02*
X56400D01*
X57200Y86512D02*
X62200D01*
Y80513D02*
Y86512D01*
X57200Y80513D02*
X62200D01*
X57200D02*
Y86512D01*
X62800Y83025D02*
Y86575D01*
X64600Y83025D02*
Y86575D01*
X62800Y83025D02*
X64600D01*
X62800Y86575D02*
X64600D01*
X99194Y95100D02*
X100006D01*
X97294D02*
X98106D01*
X95494D02*
X96306D01*
X93600Y85194D02*
Y86006D01*
X96900Y85194D02*
Y86006D01*
X93994Y105400D02*
X94806D01*
X96035Y107425D02*
X97385D01*
X96035Y110325D02*
X97385D01*
X96035Y107425D02*
Y110325D01*
X97385Y107425D02*
Y110325D01*
X96035Y107525D02*
X97385D01*
X95894Y105400D02*
X96706D01*
X51050Y99500D02*
X51350D01*
X51050Y91900D02*
X51350D01*
X53675Y99500D02*
X53975D01*
X53675Y91900D02*
X53975D01*
X97794Y105400D02*
X98606D01*
X97600Y91294D02*
Y92106D01*
X109150Y90517D02*
Y91750D01*
Y88050D02*
Y89283D01*
X104050Y88050D02*
Y91750D01*
X109150D01*
X104050Y88050D02*
X109150D01*
X105750Y102367D02*
Y103600D01*
Y99900D02*
Y101133D01*
X100650Y99900D02*
Y103600D01*
X105750D01*
X100650Y99900D02*
X105750D01*
X97794Y101600D02*
X98606D01*
X107094Y100200D02*
X107906D01*
X107094Y103600D02*
X107906D01*
X98575Y107525D02*
X99925D01*
Y107425D02*
Y110325D01*
X98575Y107425D02*
Y110325D01*
X99925D01*
X98575Y107425D02*
X99925D01*
X103200Y95869D02*
Y96681D01*
X92375Y91869D02*
Y92681D01*
X92400Y94794D02*
Y95606D01*
X66725Y104200D02*
X70275D01*
X66725Y106000D02*
X70275D01*
Y104200D02*
Y106000D01*
X66725Y104200D02*
Y106000D01*
X62950Y105100D02*
Y106500D01*
X65850D01*
Y105100D02*
Y106500D01*
X62950Y105100D02*
X65850D01*
X58525Y106600D02*
X62075D01*
X58525Y104800D02*
X62075D01*
X58525D02*
Y106600D01*
X62075Y104800D02*
Y106600D01*
X86800Y106400D02*
Y107100D01*
X85300Y111100D02*
X91300D01*
X85300Y106400D02*
X91300D01*
Y111100D01*
X85300Y106400D02*
Y111100D01*
X86800Y107100D02*
X89800D01*
Y106400D02*
Y107100D01*
X73400Y88294D02*
Y89106D01*
X79100Y106400D02*
Y107100D01*
X76800Y111100D02*
X84800D01*
X76800Y106400D02*
X84800D01*
Y111100D01*
X76800Y106400D02*
Y111100D01*
X79100Y107100D02*
X82400D01*
Y106400D02*
Y107100D01*
X96400Y86946D02*
Y87454D01*
X80775Y98371D02*
Y98879D01*
X74000Y91046D02*
Y91554D01*
X81850Y82046D02*
Y82554D01*
X106700Y94846D02*
Y95354D01*
Y96846D02*
Y97354D01*
X86400Y100700D02*
Y102100D01*
X83500Y100700D02*
X86400D01*
X83500D02*
Y102100D01*
X86400D01*
X110800Y83700D02*
X123400D01*
X110800Y78700D02*
X123400D01*
X110800Y108700D02*
X123400D01*
X110800Y78700D02*
Y108700D01*
Y88700D02*
X123400D01*
X110800Y93700D02*
X123400D01*
X110800Y98700D02*
X123400D01*
X110800Y103700D02*
X123400D01*
X76010Y105680D02*
Y110760D01*
X70930Y105680D02*
Y110760D01*
X76000D01*
X70930Y105680D02*
X76000D01*
X73470D02*
Y110760D01*
X93495Y107425D02*
X94845D01*
X93495Y110325D02*
X94845D01*
X93495Y107425D02*
Y110325D01*
X94845Y107425D02*
Y110325D01*
X93495Y107525D02*
X94845D01*
X63475Y87025D02*
Y88225D01*
X64075D01*
X64275Y88025D01*
Y87625D01*
X64075Y87425D01*
X63475D01*
X63875D02*
X64275Y87025D01*
X65474D02*
X64675D01*
X65474Y87825D01*
Y88025D01*
X65274Y88225D01*
X64875D01*
X64675Y88025D01*
X66674Y87025D02*
X65874D01*
X66674Y87825D01*
Y88025D01*
X66474Y88225D01*
X66074D01*
X65874Y88025D01*
X66900Y89800D02*
Y91000D01*
X67500D01*
X67700Y90800D01*
Y90400D01*
X67500Y90200D01*
X66900D01*
X67300D02*
X67700Y89800D01*
X68899D02*
X68100D01*
X68899Y90600D01*
Y90800D01*
X68699Y91000D01*
X68300D01*
X68100Y90800D01*
X69299Y89800D02*
X69699D01*
X69499D01*
Y91000D01*
X69299Y90800D01*
X90800Y104525D02*
X89600Y103725D01*
X90800D02*
X89600Y104525D01*
Y102526D02*
Y103325D01*
X90400Y102526D01*
X90600D01*
X90800Y102726D01*
Y103125D01*
X90600Y103325D01*
X77775Y100275D02*
X78575Y99075D01*
Y100275D02*
X77775Y99075D01*
X78975D02*
X79374D01*
X79175D01*
Y100275D01*
X78975Y100075D01*
X103500Y90700D02*
X102500D01*
X102300Y90500D01*
Y90100D01*
X102500Y89900D01*
X103500D01*
X102300Y88901D02*
X103500D01*
X102900Y89500D01*
Y88701D01*
X103425Y107000D02*
Y106000D01*
X103625Y105800D01*
X104025D01*
X104225Y106000D01*
Y107000D01*
X104625Y106800D02*
X104825Y107000D01*
X105224D01*
X105424Y106800D01*
Y106600D01*
X105224Y106400D01*
X105024D01*
X105224D01*
X105424Y106200D01*
Y106000D01*
X105224Y105800D01*
X104825D01*
X104625Y106000D01*
X58750Y86875D02*
Y87875D01*
X58550Y88075D01*
X58150D01*
X57950Y87875D01*
Y86875D01*
X56751Y88075D02*
X57550D01*
X56751Y87275D01*
Y87075D01*
X56951Y86875D01*
X57350D01*
X57550Y87075D01*
X76600Y96400D02*
Y95400D01*
X76800Y95200D01*
X77200D01*
X77400Y95400D01*
Y96400D01*
X77800Y95200D02*
X78199D01*
X78000D01*
Y96400D01*
X77800Y96200D01*
X90550Y93125D02*
Y94325D01*
X91150D01*
X91350Y94125D01*
Y93725D01*
X91150Y93525D01*
X90550D01*
X90950D02*
X91350Y93125D01*
X91750D02*
Y93925D01*
X92149Y94325D01*
X92549Y93925D01*
Y93125D01*
Y93725D01*
X91750D01*
X92949Y93125D02*
X93349D01*
X93149D01*
Y94325D01*
X92949Y94125D01*
X93949D02*
X94149Y94325D01*
X94549D01*
X94749Y94125D01*
Y93925D01*
X94549Y93725D01*
X94349D01*
X94549D01*
X94749Y93525D01*
Y93325D01*
X94549Y93125D01*
X94149D01*
X93949Y93325D01*
X90425Y96050D02*
Y97250D01*
X91025D01*
X91225Y97050D01*
Y96650D01*
X91025Y96450D01*
X90425D01*
X90825D02*
X91225Y96050D01*
X91625D02*
Y96850D01*
X92024Y97250D01*
X92424Y96850D01*
Y96050D01*
Y96650D01*
X91625D01*
X92824Y97050D02*
X93024Y97250D01*
X93424D01*
X93624Y97050D01*
Y96850D01*
X93424Y96650D01*
X93224D01*
X93424D01*
X93624Y96450D01*
Y96250D01*
X93424Y96050D01*
X93024D01*
X92824Y96250D01*
X70000Y96100D02*
Y97300D01*
X70600D01*
X70800Y97100D01*
Y96700D01*
X70600Y96500D01*
X70000D01*
X70400D02*
X70800Y96100D01*
X71200D02*
X71599D01*
X71400D01*
Y97300D01*
X71200Y97100D01*
X72199Y97300D02*
X72999D01*
Y97100D01*
X72199Y96300D01*
Y96100D01*
X70000Y94275D02*
Y95475D01*
X70600D01*
X70800Y95275D01*
Y94875D01*
X70600Y94675D01*
X70000D01*
X70400D02*
X70800Y94275D01*
X71200D02*
X71599D01*
X71400D01*
Y95475D01*
X71200Y95275D01*
X72999Y95475D02*
X72599Y95275D01*
X72199Y94875D01*
Y94475D01*
X72399Y94275D01*
X72799D01*
X72999Y94475D01*
Y94675D01*
X72799Y94875D01*
X72199D01*
X70000Y100500D02*
Y101700D01*
X70600D01*
X70800Y101500D01*
Y101100D01*
X70600Y100900D01*
X70000D01*
X70400D02*
X70800Y100500D01*
X71200D02*
X71599D01*
X71400D01*
Y101700D01*
X71200Y101500D01*
X72999Y101700D02*
X72199D01*
Y101100D01*
X72599Y101300D01*
X72799D01*
X72999Y101100D01*
Y100700D01*
X72799Y100500D01*
X72399D01*
X72199Y100700D01*
X70000Y98700D02*
Y99900D01*
X70600D01*
X70800Y99700D01*
Y99300D01*
X70600Y99100D01*
X70000D01*
X70400D02*
X70800Y98700D01*
X71200D02*
X71599D01*
X71400D01*
Y99900D01*
X71200Y99700D01*
X72799Y98700D02*
Y99900D01*
X72199Y99300D01*
X72999D01*
X96075Y102850D02*
X97275D01*
Y102250D01*
X97075Y102050D01*
X96675D01*
X96475Y102250D01*
Y102850D01*
Y102450D02*
X96075Y102050D01*
Y100851D02*
Y101650D01*
X96875Y100851D01*
X97075D01*
X97275Y101051D01*
Y101450D01*
X97075Y101650D01*
Y100451D02*
X97275Y100251D01*
Y99851D01*
X97075Y99651D01*
X96275D01*
X96075Y99851D01*
Y100251D01*
X96275Y100451D01*
X97075D01*
X101775Y94150D02*
Y95350D01*
X102375D01*
X102575Y95150D01*
Y94750D01*
X102375Y94550D01*
X101775D01*
X102175D02*
X102575Y94150D01*
X102975D02*
X103374D01*
X103175D01*
Y95350D01*
X102975Y95150D01*
X104774Y94150D02*
X103974D01*
X104774Y94950D01*
Y95150D01*
X104574Y95350D01*
X104174D01*
X103974Y95150D01*
X108500Y105400D02*
X109700D01*
Y104800D01*
X109500Y104600D01*
X109100D01*
X108900Y104800D01*
Y105400D01*
Y105000D02*
X108500Y104600D01*
Y104200D02*
Y103801D01*
Y104000D01*
X109700D01*
X109500Y104200D01*
X108500Y103201D02*
Y102801D01*
Y103001D01*
X109700D01*
X109500Y103201D01*
X108500Y101975D02*
X109700D01*
Y101375D01*
X109500Y101175D01*
X109100D01*
X108900Y101375D01*
Y101975D01*
Y101575D02*
X108500Y101175D01*
Y100775D02*
Y100376D01*
Y100575D01*
X109700D01*
X109500Y100775D01*
Y99776D02*
X109700Y99576D01*
Y99176D01*
X109500Y98976D01*
X109300D01*
X109100Y99176D01*
Y99376D01*
Y99176D01*
X108900Y98976D01*
X108700D01*
X108500Y99176D01*
Y99576D01*
X108700Y99776D01*
X108400Y85000D02*
X109600D01*
Y84400D01*
X109400Y84200D01*
X109000D01*
X108800Y84400D01*
Y85000D01*
Y84600D02*
X108400Y84200D01*
X108600Y83800D02*
X108400Y83600D01*
Y83201D01*
X108600Y83001D01*
X109400D01*
X109600Y83201D01*
Y83600D01*
X109400Y83800D01*
X109200D01*
X109000Y83600D01*
Y83001D01*
X72150Y85025D02*
Y86225D01*
X72750D01*
X72950Y86025D01*
Y85625D01*
X72750Y85425D01*
X72150D01*
X72550D02*
X72950Y85025D01*
X74149Y86225D02*
X73350D01*
Y85625D01*
X73749Y85825D01*
X73949D01*
X74149Y85625D01*
Y85225D01*
X73949Y85025D01*
X73550D01*
X73350Y85225D01*
X73300Y89450D02*
Y90650D01*
X73900D01*
X74100Y90450D01*
Y90050D01*
X73900Y89850D01*
X73300D01*
X73700D02*
X74100Y89450D01*
X75299D02*
X74500D01*
X75299Y90250D01*
Y90450D01*
X75099Y90650D01*
X74700D01*
X74500Y90450D01*
X70000Y84300D02*
Y85500D01*
X70600D01*
X70800Y85300D01*
Y84900D01*
X70600Y84700D01*
X70000D01*
X70400D02*
X70800Y84300D01*
X71200D02*
X71599D01*
X71400D01*
Y85500D01*
X71200Y85300D01*
X91875Y106850D02*
X93075D01*
Y107650D01*
X91875Y108849D02*
Y108050D01*
X93075D01*
Y108849D01*
X92475Y108050D02*
Y108449D01*
X91875Y109249D02*
X93075D01*
Y109849D01*
X92875Y110049D01*
X92075D01*
X91875Y109849D01*
Y109249D01*
X93075Y110449D02*
Y110849D01*
Y110649D01*
X91875D01*
X92075Y110449D01*
X65200Y103300D02*
Y104500D01*
X64400D01*
X64000D02*
X63601D01*
X63800D01*
Y103300D01*
X64000Y103500D01*
X69780Y109450D02*
X70180D01*
X69980D01*
Y110450D01*
X70180Y110650D01*
X70380D01*
X70580Y110450D01*
X69380Y110650D02*
Y109450D01*
X68781D01*
X68581Y109650D01*
Y110050D01*
X68781Y110250D01*
X69380D01*
X68181Y110650D02*
X67781D01*
X67981D01*
Y109450D01*
X68181Y109650D01*
X92550Y105100D02*
X92750Y104900D01*
X93150D01*
X93350Y105100D01*
Y105900D01*
X93150Y106100D01*
X92750D01*
X92550Y105900D01*
X92150Y106100D02*
Y104900D01*
X91351Y106100D01*
Y104900D01*
X90151D02*
X90551Y105100D01*
X90951Y105500D01*
Y105900D01*
X90751Y106100D01*
X90351D01*
X90151Y105900D01*
Y105700D01*
X90351Y105500D01*
X90951D01*
X84200Y105075D02*
X84400Y104875D01*
X84800D01*
X85000Y105075D01*
Y105875D01*
X84800Y106075D01*
X84400D01*
X84200Y105875D01*
X83800Y106075D02*
Y104875D01*
X83001Y106075D01*
Y104875D01*
X81801D02*
X82601D01*
Y105475D01*
X82201Y105275D01*
X82001D01*
X81801Y105475D01*
Y105875D01*
X82001Y106075D01*
X82401D01*
X82601Y105875D01*
X72050Y80900D02*
X71850Y81100D01*
X71450D01*
X71250Y80900D01*
Y80100D01*
X71450Y79900D01*
X71850D01*
X72050Y80100D01*
X72450Y79900D02*
Y81100D01*
X73249Y79900D01*
Y81100D01*
X73649Y80900D02*
X73849Y81100D01*
X74249D01*
X74449Y80900D01*
Y80700D01*
X74249Y80500D01*
X74049D01*
X74249D01*
X74449Y80300D01*
Y80100D01*
X74249Y79900D01*
X73849D01*
X73649Y80100D01*
X53300Y104300D02*
X53100Y104500D01*
X52700D01*
X52500Y104300D01*
Y103500D01*
X52700Y103300D01*
X53100D01*
X53300Y103500D01*
X53700Y103300D02*
Y104500D01*
X54499Y103300D01*
Y104500D01*
X55699Y103300D02*
X54899D01*
X55699Y104100D01*
Y104300D01*
X55499Y104500D01*
X55099D01*
X54899Y104300D01*
X117900Y77100D02*
X118100Y76900D01*
X118500D01*
X118700Y77100D01*
Y77900D01*
X118500Y78100D01*
X118100D01*
X117900Y77900D01*
X117500Y78100D02*
Y76900D01*
X116701Y78100D01*
Y76900D01*
X116301Y78100D02*
X115901D01*
X116101D01*
Y76900D01*
X116301Y77100D01*
X98450Y88025D02*
X98250Y88225D01*
X97850D01*
X97650Y88025D01*
Y87225D01*
X97850Y87025D01*
X98250D01*
X98450Y87225D01*
X98850Y87025D02*
X99249D01*
X99050D01*
Y88225D01*
X98850Y88025D01*
X99849D02*
X100049Y88225D01*
X100449D01*
X100649Y88025D01*
Y87825D01*
X100449Y87625D01*
X100649Y87425D01*
Y87225D01*
X100449Y87025D01*
X100049D01*
X99849Y87225D01*
Y87425D01*
X100049Y87625D01*
X99849Y87825D01*
Y88025D01*
X100049Y87625D02*
X100449D01*
X57100Y105000D02*
X56900Y104800D01*
Y104400D01*
X57100Y104200D01*
X57900D01*
X58100Y104400D01*
Y104800D01*
X57900Y105000D01*
X58100Y105400D02*
Y105799D01*
Y105600D01*
X56900D01*
X57100Y105400D01*
X56900Y106399D02*
Y107199D01*
X57100D01*
X57900Y106399D01*
X58100D01*
X108050Y95425D02*
X107850Y95225D01*
Y94825D01*
X108050Y94625D01*
X108850D01*
X109050Y94825D01*
Y95225D01*
X108850Y95425D01*
X109050Y95825D02*
Y96224D01*
Y96025D01*
X107850D01*
X108050Y95825D01*
X107850Y97624D02*
X108050Y97224D01*
X108450Y96824D01*
X108850D01*
X109050Y97024D01*
Y97424D01*
X108850Y97624D01*
X108650D01*
X108450Y97424D01*
Y96824D01*
X101600Y83400D02*
X101400Y83200D01*
Y82800D01*
X101600Y82600D01*
X102400D01*
X102600Y82800D01*
Y83200D01*
X102400Y83400D01*
X102600Y83800D02*
Y84199D01*
Y84000D01*
X101400D01*
X101600Y83800D01*
X101400Y85599D02*
Y84799D01*
X102000D01*
X101800Y85199D01*
Y85399D01*
X102000Y85599D01*
X102400D01*
X102600Y85399D01*
Y84999D01*
X102400Y84799D01*
X109500Y95975D02*
X109300Y95775D01*
Y95375D01*
X109500Y95175D01*
X110300D01*
X110500Y95375D01*
Y95775D01*
X110300Y95975D01*
X110500Y96375D02*
Y96774D01*
Y96575D01*
X109300D01*
X109500Y96375D01*
X110500Y97974D02*
X109300D01*
X109900Y97374D01*
Y98174D01*
X74275Y101225D02*
X74075Y101025D01*
Y100625D01*
X74275Y100425D01*
X75075D01*
X75275Y100625D01*
Y101025D01*
X75075Y101225D01*
X75275Y101625D02*
Y102024D01*
Y101825D01*
X74075D01*
X74275Y101625D01*
Y102624D02*
X74075Y102824D01*
Y103224D01*
X74275Y103424D01*
X74475D01*
X74675Y103224D01*
Y103024D01*
Y103224D01*
X74875Y103424D01*
X75075D01*
X75275Y103224D01*
Y102824D01*
X75075Y102624D01*
X76325Y105175D02*
X76125Y105375D01*
X75725D01*
X75525Y105175D01*
Y104375D01*
X75725Y104175D01*
X76125D01*
X76325Y104375D01*
X76725Y104175D02*
X77124D01*
X76925D01*
Y105375D01*
X76725Y105175D01*
X78524Y104175D02*
X77724D01*
X78524Y104975D01*
Y105175D01*
X78324Y105375D01*
X77924D01*
X77724Y105175D01*
X82975Y100250D02*
X82775Y100450D01*
X82375D01*
X82175Y100250D01*
Y99450D01*
X82375Y99250D01*
X82775D01*
X82975Y99450D01*
X83375Y99250D02*
X83774D01*
X83575D01*
Y100450D01*
X83375Y100250D01*
X84374Y99250D02*
X84774D01*
X84574D01*
Y100450D01*
X84374Y100250D01*
X91775Y101925D02*
X91575Y102125D01*
X91175D01*
X90975Y101925D01*
Y101125D01*
X91175Y100925D01*
X91575D01*
X91775Y101125D01*
X92175Y100925D02*
X92574D01*
X92375D01*
Y102125D01*
X92175Y101925D01*
X93174D02*
X93374Y102125D01*
X93774D01*
X93974Y101925D01*
Y101125D01*
X93774Y100925D01*
X93374D01*
X93174Y101125D01*
Y101925D01*
X93400Y90900D02*
X93200Y91100D01*
X92800D01*
X92600Y90900D01*
Y90100D01*
X92800Y89900D01*
X93200D01*
X93400Y90100D01*
X93800D02*
X94000Y89900D01*
X94399D01*
X94599Y90100D01*
Y90900D01*
X94399Y91100D01*
X94000D01*
X93800Y90900D01*
Y90700D01*
X94000Y90500D01*
X94599D01*
X82725Y98675D02*
X82525Y98875D01*
X82125D01*
X81925Y98675D01*
Y97875D01*
X82125Y97675D01*
X82525D01*
X82725Y97875D01*
X83125Y98675D02*
X83325Y98875D01*
X83724D01*
X83924Y98675D01*
Y98475D01*
X83724Y98275D01*
X83924Y98075D01*
Y97875D01*
X83724Y97675D01*
X83325D01*
X83125Y97875D01*
Y98075D01*
X83325Y98275D01*
X83125Y98475D01*
Y98675D01*
X83325Y98275D02*
X83724D01*
X84075Y81700D02*
X84275Y81500D01*
X84675D01*
X84875Y81700D01*
Y82500D01*
X84675Y82700D01*
X84275D01*
X84075Y82500D01*
X83675Y81500D02*
X82876D01*
Y81700D01*
X83675Y82500D01*
Y82700D01*
X71725Y91650D02*
X71525Y91850D01*
X71125D01*
X70925Y91650D01*
Y90850D01*
X71125Y90650D01*
X71525D01*
X71725Y90850D01*
X72924Y91850D02*
X72524Y91650D01*
X72125Y91250D01*
Y90850D01*
X72325Y90650D01*
X72724D01*
X72924Y90850D01*
Y91050D01*
X72724Y91250D01*
X72125D01*
X89050Y99325D02*
X88850Y99525D01*
X88450D01*
X88250Y99325D01*
Y98525D01*
X88450Y98325D01*
X88850D01*
X89050Y98525D01*
X90249Y99525D02*
X89450D01*
Y98925D01*
X89849Y99125D01*
X90049D01*
X90249Y98925D01*
Y98525D01*
X90049Y98325D01*
X89650D01*
X89450Y98525D01*
X70400Y93300D02*
X70200Y93500D01*
X69800D01*
X69600Y93300D01*
Y92500D01*
X69800Y92300D01*
X70200D01*
X70400Y92500D01*
X71399Y92300D02*
Y93500D01*
X70800Y92900D01*
X71599D01*
X68750Y102750D02*
X68950Y102550D01*
X69350D01*
X69550Y102750D01*
Y103550D01*
X69350Y103750D01*
X68950D01*
X68750Y103550D01*
X68350Y102750D02*
X68150Y102550D01*
X67751D01*
X67551Y102750D01*
Y102950D01*
X67751Y103150D01*
X67951D01*
X67751D01*
X67551Y103350D01*
Y103550D01*
X67751Y103750D01*
X68150D01*
X68350Y103550D01*
X66000Y84950D02*
X66200Y85150D01*
Y85550D01*
X66000Y85750D01*
X65200D01*
X65000Y85550D01*
Y85150D01*
X65200Y84950D01*
X65000Y83751D02*
Y84550D01*
X65800Y83751D01*
X66000D01*
X66200Y83951D01*
Y84350D01*
X66000Y84550D01*
X53175Y84925D02*
X52975Y84725D01*
Y84325D01*
X53175Y84125D01*
X53975D01*
X54175Y84325D01*
Y84725D01*
X53975Y84925D01*
X54175Y85325D02*
Y85724D01*
Y85525D01*
X52975D01*
X53175Y85325D01*
X100300Y106525D02*
X101500D01*
Y107325D01*
X100300Y108524D02*
Y107725D01*
X101500D01*
Y108524D01*
X100900Y107725D02*
Y108124D01*
X100300Y108924D02*
X101500D01*
Y109524D01*
X101300Y109724D01*
X100500D01*
X100300Y109524D01*
Y108924D01*
X100500Y110124D02*
X100300Y110324D01*
Y110724D01*
X100500Y110924D01*
X100700D01*
X100900Y110724D01*
Y110524D01*
Y110724D01*
X101100Y110924D01*
X101300D01*
X101500Y110724D01*
Y110324D01*
X101300Y110124D01*
X104800Y81200D02*
Y82400D01*
X105400D01*
X105600Y82200D01*
Y81800D01*
X105400Y81600D01*
X104800D01*
X105200D02*
X105600Y81200D01*
X106000D02*
X106399D01*
X106200D01*
Y82400D01*
X106000Y82200D01*
X106999D02*
X107199Y82400D01*
X107599D01*
X107799Y82200D01*
Y81400D01*
X107599Y81200D01*
X107199D01*
X106999Y81400D01*
Y82200D01*
X92075Y81600D02*
X91875Y81800D01*
X91475D01*
X91275Y81600D01*
Y80800D01*
X91475Y80600D01*
X91875D01*
X92075Y80800D01*
X92475Y80600D02*
X92874D01*
X92675D01*
Y81800D01*
X92475Y81600D01*
X93474Y80800D02*
X93674Y80600D01*
X94074D01*
X94274Y80800D01*
Y81600D01*
X94074Y81800D01*
X93674D01*
X93474Y81600D01*
Y81400D01*
X93674Y81200D01*
X94274D01*
X94375Y89525D02*
Y88325D01*
X95175D01*
X96374D02*
X95575D01*
X96374Y89125D01*
Y89325D01*
X96174Y89525D01*
X95775D01*
X95575Y89325D01*
X74775Y95225D02*
Y94825D01*
Y95025D01*
X75975D01*
X75775Y95225D01*
X75975Y94225D02*
Y93426D01*
X75775D01*
X74975Y94225D01*
X74775D01*
X88850Y95300D02*
X89050Y94900D01*
X89450Y94500D01*
X89850D01*
X90050Y94700D01*
Y95100D01*
X89850Y95300D01*
X89650D01*
X89450Y95100D01*
Y94500D01*
X90050Y96299D02*
X88850D01*
X89450Y95700D01*
Y96499D01*
X86250Y82275D02*
Y83475D01*
X85650Y82875D01*
X86450D01*
X86850Y83275D02*
X87050Y83475D01*
X87449D01*
X87649Y83275D01*
Y83075D01*
X87449Y82875D01*
X87649Y82675D01*
Y82475D01*
X87449Y82275D01*
X87050D01*
X86850Y82475D01*
Y82675D01*
X87050Y82875D01*
X86850Y83075D01*
Y83275D01*
X87050Y82875D02*
X87449D01*
X75800Y86550D02*
X76000Y86350D01*
Y85950D01*
X75800Y85750D01*
X75600D01*
X75400Y85950D01*
Y86150D01*
Y85950D01*
X75200Y85750D01*
X75000D01*
X74800Y85950D01*
Y86350D01*
X75000Y86550D01*
X74800Y84551D02*
Y85350D01*
X75600Y84551D01*
X75800D01*
X76000Y84751D01*
Y85150D01*
X75800Y85350D01*
X87700Y97550D02*
X87300D01*
X87500D01*
Y96350D01*
X87700Y96550D01*
X78150Y83200D02*
X78350Y83400D01*
X78750D01*
X78950Y83200D01*
Y83000D01*
X78750Y82800D01*
X78550D01*
X78750D01*
X78950Y82600D01*
Y82400D01*
X78750Y82200D01*
X78350D01*
X78150Y82400D01*
X79350Y83200D02*
X79550Y83400D01*
X79949D01*
X80149Y83200D01*
Y83000D01*
X79949Y82800D01*
X79749D01*
X79949D01*
X80149Y82600D01*
Y82400D01*
X79949Y82200D01*
X79550D01*
X79350Y82400D01*
X55550Y76700D02*
X56350D01*
X56750Y77100D01*
X56350Y77500D01*
X55550D01*
Y77900D02*
Y78299D01*
Y78100D01*
X56750D01*
Y77900D01*
Y78299D01*
Y78899D02*
X55550D01*
X56750Y79699D01*
X55550D01*
X72650Y103175D02*
X71450D01*
X71850Y103575D01*
X71450Y103975D01*
X72650D01*
X71450Y104375D02*
X72650D01*
Y104974D01*
X72450Y105174D01*
X71650D01*
X71450Y104974D01*
Y104375D01*
D56*
X96410Y109000D02*
X97010D01*
X96710Y108800D02*
Y108954D01*
X99250Y108800D02*
Y108954D01*
X98950Y109000D02*
X99550D01*
X93870D02*
X94470D01*
X94170Y108800D02*
Y108954D01*
M02*
