%FSLAX43Y43*%
%MOMM*%
G71*
G01*
G75*
G04 Layer_Color=16711935*
%ADD10R,2.880X1.120*%
%ADD11R,0.800X0.900*%
%ADD12R,0.900X1.270*%
%ADD13R,1.000X1.800*%
%ADD14R,1.400X1.200*%
%ADD15R,0.300X1.600*%
%ADD16R,1.600X0.300*%
%ADD17R,0.900X0.800*%
%ADD18R,0.508X0.559*%
%ADD19R,1.270X0.900*%
G04:AMPARAMS|DCode=20|XSize=1.9mm|YSize=3.3mm|CornerRadius=0mm|HoleSize=0mm|Usage=FLASHONLY|Rotation=180.000|XOffset=0mm|YOffset=0mm|HoleType=Round|Shape=Octagon|*
%AMOCTAGOND20*
4,1,8,0.475,-1.650,-0.475,-1.650,-0.950,-1.175,-0.950,1.175,-0.475,1.650,0.475,1.650,0.950,1.175,0.950,-1.175,0.475,-1.650,0.0*
%
%ADD20OCTAGOND20*%

%ADD21R,0.700X1.800*%
%ADD22R,0.700X1.350*%
%ADD23R,0.800X0.800*%
%ADD24R,1.600X2.200*%
%ADD25R,1.350X0.400*%
%ADD26R,1.900X1.900*%
%ADD27R,1.900X1.800*%
%ADD28R,0.600X1.400*%
%ADD29R,1.800X2.500*%
%ADD30C,0.200*%
%ADD31C,0.400*%
%ADD32C,0.300*%
%ADD33R,0.550X11.375*%
%ADD34R,0.550X2.225*%
%ADD35R,0.550X2.300*%
%ADD36R,1.975X0.550*%
%ADD37R,1.400X0.400*%
%ADD38R,0.400X1.400*%
%ADD39R,1.400X0.400*%
%ADD40R,2.150X0.500*%
%ADD41R,0.500X2.150*%
%ADD42C,0.600*%
%ADD43C,3.200*%
%ADD44C,1.000*%
%ADD45R,1.800X1.800*%
%ADD46C,1.800*%
%ADD47C,1.500*%
%ADD48C,1.700*%
%ADD49C,2.000*%
%ADD50R,1.143X1.270*%
%ADD51R,4.800X0.650*%
%ADD52R,0.650X4.800*%
%ADD53R,3.175X0.650*%
%ADD54R,0.500X3.425*%
%ADD55R,3.425X0.500*%
%ADD56R,3.625X0.600*%
%ADD57R,0.600X3.625*%
%ADD58C,0.254*%
%ADD59R,1.550X3.125*%
%ADD60R,3.083X1.323*%
%ADD61R,1.003X1.103*%
%ADD62R,1.103X1.473*%
%ADD63R,1.203X2.003*%
%ADD64R,1.603X1.403*%
%ADD65R,0.503X1.803*%
%ADD66R,1.803X0.503*%
%ADD67R,1.103X1.003*%
%ADD68R,0.711X0.762*%
%ADD69R,1.473X1.103*%
G04:AMPARAMS|DCode=70|XSize=2.103mm|YSize=3.503mm|CornerRadius=0mm|HoleSize=0mm|Usage=FLASHONLY|Rotation=180.000|XOffset=0mm|YOffset=0mm|HoleType=Round|Shape=Octagon|*
%AMOCTAGOND70*
4,1,8,0.526,-1.752,-0.526,-1.752,-1.052,-1.226,-1.052,1.226,-0.526,1.752,0.526,1.752,1.052,1.226,1.052,-1.226,0.526,-1.752,0.0*
%
%ADD70OCTAGOND70*%

%ADD71R,0.903X2.003*%
%ADD72R,0.903X1.553*%
%ADD73R,1.003X1.003*%
%ADD74R,1.803X2.403*%
%ADD75R,1.553X0.603*%
%ADD76R,2.103X2.103*%
%ADD77R,2.103X2.003*%
%ADD78R,0.803X1.603*%
%ADD79R,2.003X2.703*%
%ADD80C,3.403*%
%ADD81C,1.203*%
%ADD82R,2.003X2.003*%
%ADD83C,2.003*%
%ADD84C,1.703*%
%ADD85C,1.903*%
%ADD86C,2.203*%
%ADD87R,1.346X1.473*%
D61*
X92125Y81625D02*
D03*
X90525D02*
D03*
X88000Y92000D02*
D03*
X89600D02*
D03*
D67*
X101900Y85100D02*
D03*
Y83500D02*
D03*
X100000D02*
D03*
Y85100D02*
D03*
X98000Y83500D02*
D03*
Y85100D02*
D03*
X96100Y83500D02*
D03*
Y85100D02*
D03*
X94200D02*
D03*
Y83500D02*
D03*
X92300Y85100D02*
D03*
Y83500D02*
D03*
X90400D02*
D03*
Y85100D02*
D03*
D79*
X103660Y78000D02*
D03*
X101120D02*
D03*
X78260D02*
D03*
X80800D02*
D03*
X83340D02*
D03*
X85880D02*
D03*
X88420D02*
D03*
X90960D02*
D03*
X93500D02*
D03*
X75720D02*
D03*
X73180D02*
D03*
X70640D02*
D03*
X68100D02*
D03*
X65560D02*
D03*
X63020D02*
D03*
X60480D02*
D03*
X57940D02*
D03*
X96040D02*
D03*
X98580D02*
D03*
D80*
X60400Y102270D02*
D03*
Y89130D02*
D03*
D81*
X107800Y79200D02*
D03*
X53800D02*
D03*
X107800Y108200D02*
D03*
X53800D02*
D03*
D82*
X73180D02*
D03*
D83*
Y105660D02*
D03*
D84*
X87800Y108200D02*
D03*
X85800D02*
D03*
X81300D02*
D03*
X79300D02*
D03*
X77300D02*
D03*
D85*
X63020D02*
D03*
X68100D02*
D03*
X65560D02*
D03*
D86*
X114900Y106200D02*
D03*
Y101200D02*
D03*
Y96200D02*
D03*
X119900D02*
D03*
X114900Y91200D02*
D03*
X119900D02*
D03*
X114900Y86200D02*
D03*
X119900D02*
D03*
X114900Y81200D02*
D03*
X119900D02*
D03*
Y101200D02*
D03*
Y106200D02*
D03*
D87*
X64250Y89700D02*
D03*
X66250D02*
D03*
X57900Y98100D02*
D03*
X59900D02*
D03*
M02*
