%FSLAX43Y43*%
%MOMM*%
G71*
G01*
G75*
G04 Layer_Color=8388736*
%ADD10R,2.880X1.120*%
%ADD11R,0.800X0.900*%
%ADD12R,0.900X1.270*%
%ADD13R,1.000X1.800*%
%ADD14R,1.400X1.200*%
%ADD15R,0.300X1.600*%
%ADD16R,1.600X0.300*%
%ADD17R,0.900X0.800*%
%ADD18R,0.508X0.559*%
%ADD19R,1.270X0.900*%
G04:AMPARAMS|DCode=20|XSize=1.9mm|YSize=3.3mm|CornerRadius=0mm|HoleSize=0mm|Usage=FLASHONLY|Rotation=180.000|XOffset=0mm|YOffset=0mm|HoleType=Round|Shape=Octagon|*
%AMOCTAGOND20*
4,1,8,0.475,-1.650,-0.475,-1.650,-0.950,-1.175,-0.950,1.175,-0.475,1.650,0.475,1.650,0.950,1.175,0.950,-1.175,0.475,-1.650,0.0*
%
%ADD20OCTAGOND20*%

%ADD21R,0.700X1.800*%
%ADD22R,0.700X1.350*%
%ADD23R,0.800X0.800*%
%ADD24R,1.600X2.200*%
%ADD25R,1.350X0.400*%
%ADD26R,1.900X1.900*%
%ADD27R,1.900X1.800*%
%ADD28R,0.600X1.400*%
%ADD29R,1.800X2.500*%
%ADD30C,0.200*%
%ADD31C,0.400*%
%ADD32C,0.300*%
%ADD33R,0.550X11.375*%
%ADD34R,0.550X2.225*%
%ADD35R,0.550X2.300*%
%ADD36R,1.975X0.550*%
%ADD37R,1.400X0.400*%
%ADD38R,0.400X1.400*%
%ADD39R,1.400X0.400*%
%ADD40R,2.150X0.500*%
%ADD41R,0.500X2.150*%
%ADD42C,0.600*%
%ADD43C,3.200*%
%ADD44C,1.000*%
%ADD45R,1.800X1.800*%
%ADD46C,1.800*%
%ADD47C,1.500*%
%ADD48C,1.700*%
%ADD49C,2.000*%
%ADD50R,1.143X1.270*%
%ADD51R,4.800X0.650*%
%ADD52R,0.650X4.800*%
%ADD53R,3.175X0.650*%
%ADD54R,0.500X3.425*%
%ADD55R,3.425X0.500*%
%ADD56R,3.625X0.600*%
%ADD57R,0.600X3.625*%
%ADD58C,0.254*%
%ADD59R,1.550X3.125*%
%ADD60R,3.083X1.323*%
%ADD61R,1.003X1.103*%
%ADD62R,1.103X1.473*%
%ADD63R,1.203X2.003*%
%ADD64R,1.603X1.403*%
%ADD65R,0.503X1.803*%
%ADD66R,1.803X0.503*%
%ADD67R,1.103X1.003*%
%ADD68R,0.711X0.762*%
%ADD69R,1.473X1.103*%
G04:AMPARAMS|DCode=70|XSize=2.103mm|YSize=3.503mm|CornerRadius=0mm|HoleSize=0mm|Usage=FLASHONLY|Rotation=180.000|XOffset=0mm|YOffset=0mm|HoleType=Round|Shape=Octagon|*
%AMOCTAGOND70*
4,1,8,0.526,-1.752,-0.526,-1.752,-1.052,-1.226,-1.052,1.226,-0.526,1.752,0.526,1.752,1.052,1.226,1.052,-1.226,0.526,-1.752,0.0*
%
%ADD70OCTAGOND70*%

%ADD71R,0.903X2.003*%
%ADD72R,0.903X1.553*%
%ADD73R,1.003X1.003*%
%ADD74R,1.803X2.403*%
%ADD75R,1.553X0.603*%
%ADD76R,2.103X2.103*%
%ADD77R,2.103X2.003*%
%ADD78R,0.803X1.603*%
%ADD79R,2.003X2.703*%
%ADD80C,3.403*%
%ADD81C,1.203*%
%ADD82R,2.003X2.003*%
%ADD83C,2.003*%
%ADD84C,1.703*%
%ADD85C,1.903*%
%ADD86C,2.203*%
D59*
X55175Y95713D02*
D03*
D60*
X63980Y99200D02*
D03*
Y96700D02*
D03*
Y94700D02*
D03*
Y92200D02*
D03*
D61*
X93200Y87600D02*
D03*
X91600D02*
D03*
X88225Y101425D02*
D03*
X89825D02*
D03*
X81075Y105000D02*
D03*
X79475D02*
D03*
X69100Y99200D02*
D03*
X67500D02*
D03*
Y101200D02*
D03*
X69100D02*
D03*
Y96700D02*
D03*
X67500D02*
D03*
X69100Y94675D02*
D03*
X67500D02*
D03*
X74200Y92900D02*
D03*
X72600D02*
D03*
X69100Y88900D02*
D03*
X67500D02*
D03*
X69100Y86900D02*
D03*
X67500D02*
D03*
Y84900D02*
D03*
X69100D02*
D03*
X87200Y98900D02*
D03*
X85600D02*
D03*
X92800Y85600D02*
D03*
X94400D02*
D03*
X97700D02*
D03*
X96100D02*
D03*
X98400Y91700D02*
D03*
X96800D02*
D03*
X104000Y96275D02*
D03*
X102400D02*
D03*
X91575Y92275D02*
D03*
X93175D02*
D03*
X93200Y95200D02*
D03*
X91600D02*
D03*
X63600Y105800D02*
D03*
X65200D02*
D03*
X72600Y88500D02*
D03*
X74200D02*
D03*
X85750Y101400D02*
D03*
X84150D02*
D03*
D62*
X91625Y83100D02*
D03*
X93725D02*
D03*
X69650Y105700D02*
D03*
X67550D02*
D03*
X59250D02*
D03*
X61350D02*
D03*
D63*
X85750Y103800D02*
D03*
X88250D02*
D03*
D64*
X81100Y103150D02*
D03*
X78700D02*
D03*
Y101250D02*
D03*
X81100D02*
D03*
D65*
X86550Y95800D02*
D03*
X86050D02*
D03*
X85550D02*
D03*
X85050D02*
D03*
X84550D02*
D03*
X84050D02*
D03*
X83550D02*
D03*
X83050D02*
D03*
X82550D02*
D03*
X82050D02*
D03*
X81550D02*
D03*
X81050D02*
D03*
X80550D02*
D03*
X80050D02*
D03*
X79550D02*
D03*
X79050D02*
D03*
X86550Y84600D02*
D03*
X86050D02*
D03*
X85550D02*
D03*
X85050D02*
D03*
X84550D02*
D03*
X84050D02*
D03*
X83550D02*
D03*
X83050D02*
D03*
X82550D02*
D03*
X82050D02*
D03*
X81550D02*
D03*
X81050D02*
D03*
X80550D02*
D03*
X80050D02*
D03*
X79550D02*
D03*
X79050D02*
D03*
D66*
X77200Y93950D02*
D03*
Y93450D02*
D03*
Y92950D02*
D03*
Y92450D02*
D03*
Y91950D02*
D03*
Y91450D02*
D03*
Y90950D02*
D03*
Y90450D02*
D03*
Y89950D02*
D03*
Y89450D02*
D03*
Y88950D02*
D03*
Y88450D02*
D03*
Y87950D02*
D03*
Y87450D02*
D03*
Y86950D02*
D03*
Y86450D02*
D03*
X88400Y93950D02*
D03*
Y93450D02*
D03*
Y92950D02*
D03*
Y92450D02*
D03*
Y91950D02*
D03*
Y91450D02*
D03*
Y90950D02*
D03*
Y90450D02*
D03*
Y89950D02*
D03*
Y89450D02*
D03*
Y88950D02*
D03*
Y88450D02*
D03*
Y87950D02*
D03*
Y87450D02*
D03*
Y86950D02*
D03*
Y86450D02*
D03*
D67*
X76375Y101125D02*
D03*
Y102725D02*
D03*
X103800Y83300D02*
D03*
Y84900D02*
D03*
X105700D02*
D03*
Y83300D02*
D03*
X107500D02*
D03*
Y84900D02*
D03*
X99600Y94300D02*
D03*
Y95900D02*
D03*
X97700Y94300D02*
D03*
Y95900D02*
D03*
X95900Y94300D02*
D03*
Y95900D02*
D03*
X93100Y104300D02*
D03*
Y105900D02*
D03*
X95000Y104300D02*
D03*
Y105900D02*
D03*
X96900Y104300D02*
D03*
Y105900D02*
D03*
X98800Y104300D02*
D03*
Y105900D02*
D03*
Y102400D02*
D03*
Y100800D02*
D03*
X107500Y99400D02*
D03*
Y101000D02*
D03*
Y104400D02*
D03*
Y102800D02*
D03*
D68*
X90892Y89700D02*
D03*
X91908D02*
D03*
X96908Y87200D02*
D03*
X95892D02*
D03*
X81283Y98625D02*
D03*
X80267D02*
D03*
X74508Y91300D02*
D03*
X73492D02*
D03*
X81342Y82300D02*
D03*
X82358D02*
D03*
X106192Y95100D02*
D03*
X107208D02*
D03*
X106192Y97100D02*
D03*
X107208D02*
D03*
D69*
X55500Y86050D02*
D03*
Y83950D02*
D03*
X63700Y83750D02*
D03*
Y85850D02*
D03*
D70*
X59700Y82613D02*
D03*
D71*
X59700Y85162D02*
D03*
D72*
X61200Y85387D02*
D03*
X58200D02*
D03*
D73*
X94770Y108150D02*
D03*
Y109650D02*
D03*
X97310Y108150D02*
D03*
Y109650D02*
D03*
X92230Y108150D02*
D03*
Y109650D02*
D03*
X99850D02*
D03*
Y108150D02*
D03*
D74*
X55050Y92500D02*
D03*
Y98900D02*
D03*
D75*
X55175Y97000D02*
D03*
Y96350D02*
D03*
Y95700D02*
D03*
Y95050D02*
D03*
Y94400D02*
D03*
D76*
X52500Y94500D02*
D03*
Y96900D02*
D03*
D77*
Y91700D02*
D03*
Y99700D02*
D03*
D78*
X108505Y92850D02*
D03*
X107235D02*
D03*
X105965D02*
D03*
X104695D02*
D03*
X108505Y86950D02*
D03*
X107235D02*
D03*
X105965D02*
D03*
X104695D02*
D03*
X105105Y104700D02*
D03*
X103835D02*
D03*
X102565D02*
D03*
X101295D02*
D03*
X105105Y98800D02*
D03*
X103835D02*
D03*
X102565D02*
D03*
X101295D02*
D03*
D79*
X103660Y78000D02*
D03*
X101120D02*
D03*
X78260D02*
D03*
X80800D02*
D03*
X83340D02*
D03*
X85880D02*
D03*
X88420D02*
D03*
X90960D02*
D03*
X93500D02*
D03*
X75720D02*
D03*
X73180D02*
D03*
X70640D02*
D03*
X68100D02*
D03*
X65560D02*
D03*
X63020D02*
D03*
X60480D02*
D03*
X57940D02*
D03*
X96040D02*
D03*
X98580D02*
D03*
D80*
X60400Y102270D02*
D03*
Y89130D02*
D03*
D81*
X107800Y79200D02*
D03*
X53800D02*
D03*
X107800Y108200D02*
D03*
X53800D02*
D03*
D82*
X73180D02*
D03*
D83*
Y105660D02*
D03*
D84*
X87800Y108200D02*
D03*
X85800D02*
D03*
X81300D02*
D03*
X79300D02*
D03*
X77300D02*
D03*
D85*
X63020D02*
D03*
X68100D02*
D03*
X65560D02*
D03*
D86*
X114900Y106200D02*
D03*
Y101200D02*
D03*
Y96200D02*
D03*
X119900D02*
D03*
X114900Y91200D02*
D03*
X119900D02*
D03*
X114900Y86200D02*
D03*
X119900D02*
D03*
X114900Y81200D02*
D03*
X119900D02*
D03*
Y101200D02*
D03*
Y106200D02*
D03*
M02*
