M48
;Layer_Color=9474304
;FILE_FORMAT=4:3
METRIC,LZ
;TYPE=PLATED
T1F00S00C0.300
T2F00S00C0.800
T3F00S00C1.000
T4F00S00C1.200
T5F00S00C2.300
;TYPE=NON_PLATED
T6F00S00C3.200
%
T01
X01217Y00778
X0111675Y00777
X00782Y00805
X00773
X00764
X0075575Y0080475
X0074725Y0080375
X00736Y0082025
X0072775Y0081375
X0071925
X0071075
X0068675Y0080875
X0066225Y0079925
X00654
X00659Y0081775
X0066075Y00846
X00661Y0087625
X00644Y00879
Y00869
X00633
Y00879
X00597Y0086625
X005665Y00863
X005405Y00862
X0052575Y0083
X00524Y0089425
X005735Y009065
X0057775Y00945
X0058325Y00994
X0057175Y0099375
X005725Y010125
X005235Y010135
X0052425Y01043
X0057625Y0109675
X0060825Y010785
X00644Y010995
X00663Y010635
X0066275Y01054
Y0104475
X0067875Y0102775
X00678Y0097925
X0071125Y0096825
X00729Y00944
X0071275Y0092525
X00687Y00934
X00675Y00898
X0069575Y0088
X00701Y008725
X007165Y00874
X00711Y008635
X0070475Y0085725
X00719Y0084725
X0076175Y008495
X0074575Y0087225
X007875Y008735
X007525Y00917
X0076775Y0095475
X00768Y009865
X00787Y0099525
X00735Y009925
X007385Y0103875
X0071025Y010495
X0070625Y010975
X00788Y0109975
X0076175Y0106525
X007795Y010455
X0071525Y008895
X0062Y008355
X0061975Y0081375
X0063375Y008035
X0059675Y00803
X00796Y00819
X008055Y00825
X00822Y0081425
X0086825Y00809
X008675Y008225
Y00831
X008785Y0084075
X00888Y00857
X0089475Y00851
X0090525Y0082525
X00897Y0080225
X009235
X0095775Y0080125
X00949Y008235
X00987Y0082425
X0101Y0081575
X0101925Y0082575
X0105275Y008205
X0103375Y00801
X0099675Y0080025
X00998Y00868
X0099
X00982
X009695Y00881
X00941Y00876
X00931Y00888
X00927Y009025
X00905Y0092675
X00864Y0092475
X0085775Y00917
X0084875
X008375Y009125
X00832Y0093325
X0084075Y0093625
X0084925Y0093725
X0082275Y0093025
X00814Y0092975
X00805
X0079575
X007975Y009165
X00813Y0094025
X00811Y0097575
Y0100175
X008305Y0100225
X00844Y01026
X008245Y0105025
X0084275Y0109625
X0090525Y0109675
X00916Y01051
X0092925Y0103375
X0094725
X009615
X0095925Y010205
X0094925
X00944Y010015
X0091225Y0098125
X0091375Y009715
X0085325Y0097725
X008705Y01001
X0086675Y0088075
X0085775Y008805
X00834Y00872
X008325Y0086175
X008085Y0088075
X008025Y0087475
X007965Y0086875
X009525Y008625
X010345Y008835
X010425Y0089775
X0106225Y00899
X01093Y0086975
X01109Y008735
X01122Y009095
X011545Y00887
X0117425Y009325
X0117475Y0098875
X0115375Y01037
X010925Y0104125
X010635Y0103375
X0106225Y0104975
X0102825Y010615
X0100475Y0104625
Y010355
Y0102725
X0102675Y010205
X0100025Y0099225
X00977Y009815
X0100925Y0093775
X0105325Y0096075
X010615
X01081Y0096675
X011165Y0100375
X011195Y010955
X010385Y01097
X0110775Y00822
X0117275Y00839
X0122Y00887
X01221Y01037
X01218Y01094
T02
X00773Y01082
X00793
X00813
X00858
X00878
T03
X006302Y01082
X006556
X00681
X007318
Y010566
T04
X01149Y00812
Y00862
Y00912
Y00962
Y01012
Y01062
X01199
Y01012
Y00962
Y00912
Y00862
Y00812
T05
X00604Y008913
Y010227
T06
X01078Y00792
X00538
Y01082
X01078
M30
